<?xml version="1.0" encoding="utf-8"?>
<!-- Generator: Adobe Illustrator 24.3.0, SVG Export Plug-In . SVG Version: 6.00 Build 0)  -->
<svg version="1.1" xmlns="http://www.w3.org/2000/svg" xmlns:xlink="http://www.w3.org/1999/xlink" x="0px" y="0px"
	 viewBox="0 0 1024 360" enable-background="new 0 0 1024 360" xml:space="preserve">
<g id="Ebene_7" display="none">
	<g display="inline">
		<rect x="449.5" y="-169.7" fill="#333333" width="1407" height="800"/>
		<path d="M1856-169.2v799H450v-799H1856 M1857-170.2H449v801h1408V-170.2L1857-170.2z"/>
	</g>
</g>
<g id="Ebene_6">
</g>
<g id="Ebene_5">
</g>
<g id="Ebene_4">
</g>
<g id="Ebene_2">
</g>
<g id="Ebene_3">
	<circle fill="#FFFFFF" stroke="#000000" stroke-width="6" stroke-miterlimit="10" cx="863.1" cy="184.3" r="150"/>
	<circle fill="#FFFFFF" stroke="#000000" stroke-width="6" stroke-miterlimit="10" cx="158" cy="184.3" r="150"/>
	<g>
		<path d="M831,124.6v15c0,0.3-0.3,0.6-0.7,0.6l-3.4,0c0-5.9,0-5.9,0-5.9c0-0.3-0.3-0.6-0.7-0.6h-5.5c-0.4,0-0.7,0.3-0.7,0.6l0,5.9
			c-3.3,0-3.4,0-3.4,0c-0.4,0-0.7-0.3-0.7-0.6v-15c0-0.3,0.3-0.6,0.7-0.6l3.4,0c0,5.7,0,5.8,0,5.8c0,0.3,0.3,0.6,0.7,0.6h5.5
			c0.4,0,0.7-0.3,0.7-0.6l0-5.8c3.8,0,3.4,0,3.4,0C830.7,124,831,124.3,831,124.6L831,124.6z"/>
		<path d="M835.2,125.9h2.5c0.3,0,0.6,0.2,0.6,0.5v13.3c0,0.3-0.3,0.5-0.6,0.5h-2.5c-0.3,0-0.6-0.2-0.6-0.5v-13.3
			C834.7,126.1,834.9,125.9,835.2,125.9L835.2,125.9z"/>
		<path d="M855.4,126.6l-4.9,13.4c-0.1,0.2-0.3,0.4-0.5,0.4h-3.7c-0.2,0-0.5-0.1-0.5-0.4l-4.9-13.4c-0.1-0.4,0.1-0.7,0.5-0.7h2.5
			c0.2,0,0.5,0.2,0.5,0.4l3.2,9.1c0.2,0.5,0.9,0.5,1.1,0l3.2-9.1c0.1-0.2,0.3-0.4,0.5-0.4h2.5C855.3,125.9,855.6,126.2,855.4,126.6
			L855.4,126.6z"/>
		<path d="M868,138v1.6c0,0.3-0.3,0.5-0.6,0.5h-9c-0.3,0-0.6-0.2-0.6-0.5v-13.3c0-0.3,0.3-0.5,0.6-0.5h8.9c0.3,0,0.6,0.2,0.6,0.5
			v1.6c0,0.3-0.3,0.5-0.6,0.5h-5.3c-0.3,0-0.6,0.2-0.6,0.5c0,0,0,0,0,2.5c0,0-0.1,0,5.4,0l0,2.7c-5.7,0-5.4,0-5.4,0
			c0,2.6,0,2.6,0,2.6c0,0.3,0.3,0.5,0.6,0.5h5.4C867.8,137.5,868,137.7,868,138L868,138z"/>
		<path d="M889.9,124.6v15c0,0.3-0.3,0.6-0.7,0.6h-2.8c-0.4,0-0.7-0.3-0.7-0.6l0-9.5c0-0.6-3.7,4.5-3.7,4.5
			c-0.1,0.2-0.3,0.3-0.5,0.3h-1.3c-0.2,0-0.4-0.1-0.5-0.3c0,0-3.6-5.1-3.6-4.5l0,9.6c0,0.3-0.3,0.6-0.7,0.6h-2.8
			c-0.4,0-0.7-0.3-0.7-0.6v-15c0-0.3,0.3-0.6,0.7-0.6h3.7c0.2,0,0.4,0.1,0.5,0.3l3.5,4.9c0.3,0.4,0.8,0.4,1.1,0l3.5-4.9
			c0.1-0.2,0.3-0.3,0.5-0.3h3.7C889.6,124,889.9,124.3,889.9,124.6L889.9,124.6z"/>
		<path d="M897.8,135.9c0.8,0.9,2,1.4,3.5,1.4h0l-1.1-1.2c-0.4-0.4-0.1-1,0.5-1h2.8c0.2,0,0.4,0.1,0.5,0.2c0.3,0.3,0.7,0.6,1,0.2
			c0.2-0.3,0.4-1,0.6-1.3c0.2-0.7,0.3-1.4,0.3-2.2c0-1-0.2-1.9-0.5-2.6c-0.4-0.8-0.9-1.4-1.6-1.8c-0.7-0.4-1.5-0.7-2.5-0.7
			c-1.5,0-2.6,0.5-3.5,1.4c-0.8,1-1.2,2.2-1.2,3.7C896.6,133.7,897,134.9,897.8,135.9L897.8,135.9z M909.4,135.9
			c-0.4,1-1,1.8-1.7,2.5c-0.2,0.2-0.3,0.6,0,0.8l2.3,2.3c-4.1,0-4.4,0-4.4,0c-0.2,0-0.4-0.1-0.5-0.2l-0.7-0.8
			c-0.2-0.2-0.4-0.2-0.7-0.2c-0.7,0.2-1.5,0.2-2.3,0.2c-1.9,0-3.5-0.4-4.8-1.1c-1.3-0.7-2.3-1.7-3-3c-0.7-1.3-1-2.7-1-4.3
			c0-1.6,0.3-3,1-4.3c0.7-1.3,1.7-2.3,3-3s2.9-1.1,4.8-1.1c1.9,0,3.5,0.4,4.8,1.1c1.3,0.7,2.3,1.8,3,3c0.7,1.3,1,2.7,1,4.3
			C910.1,133.5,909.9,134.8,909.4,135.9L909.4,135.9z"/>
		<path fill-rule="evenodd" clip-rule="evenodd" fill="#FCC413" d="M895.2,84.9c0,17.4-14.4,31.5-32.1,31.5
			c-17.7,0-32.1-14.1-32.1-31.5c0-17.4,14.4-31.5,32.1-31.5C880.9,53.4,895.2,67.5,895.2,84.9L895.2,84.9z"/>
		<path d="M863.1,53.7c-17.6,0-31.8,14-31.8,31.2c0,17.2,14.3,31.2,31.8,31.2c17.6,0,31.8-14,31.8-31.2
			C894.9,67.8,880.7,53.7,863.1,53.7L863.1,53.7z M863.1,119.1c-19.2,0-34.8-15.3-34.8-34.1c0-18.8,15.6-34.1,34.8-34.1
			c19.2,0,34.8,15.3,34.8,34.1C897.9,103.8,882.3,119.1,863.1,119.1L863.1,119.1z"/>
		<path fill-rule="evenodd" clip-rule="evenodd" d="M860.1,99.3c0.9,1,1.7,1.8,3.1,4.3c1.4-2.5,2.1-3.3,3.1-4.3H860.1L860.1,99.3z
			 M870.2,87.4c-2.1-1.5-4.4-3-7-4.5c-2.5,1.4-4.9,3-6.9,4.5c-0.4,1.2-0.6,2.4-0.6,3.7h15C870.8,89.8,870.6,88.6,870.2,87.4
			L870.2,87.4z M868.3,74.7c-2.1-1-3.3-3.2-3-5.5C867.5,70.2,868.7,72.4,868.3,74.7L868.3,74.7z M858.1,74.7c-0.4-2.2,0.8-4.5,3-5.5
			C861.4,71.5,860.2,73.7,858.1,74.7L858.1,74.7z M879.2,82.6c-0.3,0.3-0.4,0.9,0,1.2l0.1,0.1c5-4.2,8-7.4,6.5-9.9
			c-1.6-2.2-8.6-1.2-17,2.6c0.4-0.8,0.6-1.8,0.6-2.7c0-0.3,0-0.7-0.1-1c-0.2-1.2-0.8-2.3-1.7-3.3c-0.5-0.5-1.1-0.9-1.7-1.2l0-0.1h0
			l0.7-1.4c0.1-0.2,0-0.5-0.2-0.6c-0.2-0.1-0.5,0-0.6,0.2l-0.7,1.5c-1.2-0.4-2.4-0.4-3.6,0l-0.7-1.5c-0.1-0.2-0.4-0.3-0.6-0.2
			c-0.2,0.1-0.3,0.4-0.2,0.6l0.6,1.3l0.1,0.1c-0.6,0.3-1.2,0.7-1.7,1.2c-1.2,1.2-1.8,2.8-1.8,4.4c0,0.9,0.2,1.7,0.6,2.5
			c-2.2-1-14.4-5.9-16.8-2.5c-2.2,3.1,4.6,8.4,6.4,10l0.1-0.1c0.3-0.3,0.3-0.9,0-1.2c-0.9-0.8-2.3-2.2-3.3-3.5
			c-1.3-1.7-1.3-2.8-0.7-3.4c1.9-1.8,9.1,0.6,11.4,1.4c2.1,0.8,4.5,1.8,6.8,3.1c-11.4,6.5-19.1,14.2-17.3,17.3
			c1.1,1.9,5.9,1.7,12-0.4l-0.2-0.4c-0.2-0.3-0.6-0.5-1-0.4c-4.3,1.3-6.9,1.9-7.8,0.5c-1.3-2.2,5.2-9.6,15.3-15.3l0.8-0.4
			c0.3,0.1,0.5,0.3,0.8,0.4c10.1,5.7,16.6,13.2,15.3,15.3c-0.9,1.3-3.6,0.7-7.8-0.5c-0.4-0.1-0.8,0-1,0.4l-0.2,0.4
			c6.1,2.1,10.9,2.4,12,0.4c1.8-3.1-5.9-10.8-17.3-17.3c8-4.1,15.3-6,17.9-4.7C885.3,76.7,881.1,80.9,879.2,82.6L879.2,82.6z
			 M856.1,93.7c0.3,1.1,0.9,2.2,1.6,3.1h10.9c0.7-0.9,1.3-2,1.6-3.1H856.1L856.1,93.7z"/>
		<path fill-rule="evenodd" clip-rule="evenodd" fill="#FFFFFF" d="M858.1,74.7c-0.4-2.2,0.8-4.5,3-5.5
			C861.4,71.5,860.2,73.7,858.1,74.7L858.1,74.7z"/>
		<path fill-rule="evenodd" clip-rule="evenodd" fill="#FFFFFF" d="M847.6,83.4c0,0,0.2-0.4-0.2-0.8c-1.9-1.7-6.1-5.9-3.7-7.1
			c2.7-1.3,9.9,0.6,17.9,4.7c-4,2.3-6.8,4.2-9.8,6.5C848.6,84.4,848,83.9,847.6,83.4L847.6,83.4z"/>
		<path fill-rule="evenodd" clip-rule="evenodd" fill="#FFFFFF" d="M879.3,96.9c-0.9,1.3-3.6,0.7-7.8-0.5c-0.2-0.1-0.4-0.1-0.6,0
			c1.3-1.8,1.6-5.2,1.1-7.7c0,0,0,0,0,0l0,0c-0.1-1-0.4-1.7-0.6-2.1C877.1,91,880.2,95.4,879.3,96.9L879.3,96.9z"/>
		<path fill-rule="evenodd" clip-rule="evenodd" fill="#FFFFFF" d="M874.8,86.8c-2.9-2.4-5.8-4.3-9.8-6.6c8-4.1,15.3-6,17.9-4.7
			c2.4,1.2-1.8,5.3-3.7,7.1c-0.3,0.3-0.3,0.5-0.2,0.8C878.6,83.9,878.1,84.4,874.8,86.8L874.8,86.8z"/>
		<path fill-rule="evenodd" clip-rule="evenodd" fill="#FFFFFF" d="M855.1,86.5c-0.2,0.3-0.5,1.1-0.6,2.1l0,0c0,0,0,0,0,0
			c-0.5,2.5-0.2,5.9,1.1,7.7c-0.2-0.1-0.4-0.1-0.6,0c-4.3,1.3-6.9,1.9-7.8,0.5C846.3,95.3,849.5,91,855.1,86.5L855.1,86.5z"/>
		<path fill-rule="evenodd" clip-rule="evenodd" fill="#FFFFFF" d="M868.3,74.7c-2.1-1-3.3-3.2-3-5.5
			C867.5,70.2,868.7,72.4,868.3,74.7L868.3,74.7z"/>
	</g>
	<text transform="matrix(1 0 0 1 768.5809 282.4943)" font-family="'Roboto-Regular'" font-size="32px">MQTT Broker</text>
	<text transform="matrix(1 0 0 1 69.2799 282.4943)" font-family="'Roboto-Regular'" font-size="32px">MQTT Client</text>
	<g>
		<g>
			<path fill="#89989F" d="M76.4,229.5c-4.5,0-8.1-3.7-8.1-8.1v-40.4c0-4.5,3.7-8.1,8.1-8.1h163.2c4.5,0,8.1,3.7,8.1,8.1v40.4
				c0,4.5-3.7,8.1-8.1,8.1H76.4z"/>
			<path d="M239.6,173.8c3.9,0,7.1,3.2,7.1,7.1v40.4c0,3.9-3.2,7.1-7.1,7.1H76.4c-3.9,0-7.1-3.2-7.1-7.1v-40.4
				c0-3.9,3.2-7.1,7.1-7.1H239.6 M239.6,171.8H76.4c-5,0-9.1,4.1-9.1,9.1v40.4c0,5,4.1,9.1,9.1,9.1h163.2c5,0,9.1-4.1,9.1-9.1v-40.4
				C248.7,175.9,244.6,171.8,239.6,171.8L239.6,171.8z"/>
		</g>
		<g>
			<circle fill="#FFFFFF" cx="97.3" cy="202.2" r="4.8"/>
			<path d="M97.3,197.8c2.4,0,4.3,1.9,4.3,4.3c0,2.4-1.9,4.3-4.3,4.3s-4.3-1.9-4.3-4.3C92.9,199.8,94.9,197.8,97.3,197.8
				 M97.3,196.8c-3,0-5.3,2.4-5.3,5.3s2.4,5.3,5.3,5.3c3,0,5.3-2.4,5.3-5.3S100.2,196.8,97.3,196.8L97.3,196.8z"/>
		</g>
		<g>
			<circle fill="#FFFFFF" cx="116" cy="202.2" r="4.8"/>
			<path d="M116,197.8c2.4,0,4.3,1.9,4.3,4.3c0,2.4-1.9,4.3-4.3,4.3c-2.4,0-4.3-1.9-4.3-4.3C111.6,199.8,113.6,197.8,116,197.8
				 M116,196.8c-3,0-5.3,2.4-5.3,5.3s2.4,5.3,5.3,5.3c3,0,5.3-2.4,5.3-5.3S118.9,196.8,116,196.8L116,196.8z"/>
		</g>
		<g>
			<circle fill="#FFFFFF" cx="134.7" cy="202.2" r="4.8"/>
			<path d="M134.7,197.8c2.4,0,4.3,1.9,4.3,4.3c0,2.4-1.9,4.3-4.3,4.3c-2.4,0-4.3-1.9-4.3-4.3C130.3,199.8,132.3,197.8,134.7,197.8
				 M134.7,196.8c-3,0-5.3,2.4-5.3,5.3s2.4,5.3,5.3,5.3s5.3-2.4,5.3-5.3S137.6,196.8,134.7,196.8L134.7,196.8z"/>
		</g>
		
			<path fill="#FFFFFF" stroke="#000000" stroke-width="6" stroke-linecap="round" stroke-linejoin="round" stroke-miterlimit="10" d="
			M206.3,115.1c-12.5-10-28.3-16-45.6-16c-17.3,0-33.3,6.1-45.8,16.2"/>
		
			<path fill="#FFFFFF" stroke="#000000" stroke-width="6" stroke-linecap="round" stroke-linejoin="round" stroke-miterlimit="10" d="
			M190.1,133.7c-8-6.4-18.2-10.3-29.3-10.3c-11.2,0-21.4,3.9-29.5,10.4"/>
		
			<path fill="#FFFFFF" stroke="#000000" stroke-width="6" stroke-linecap="round" stroke-linejoin="round" stroke-miterlimit="10" d="
			M148.2,153.1c3.4-2.8,7.8-4.4,12.5-4.4c4.7,0,9.1,1.6,12.5,4.4"/>
		<g>
			<rect x="175.2" y="195.3" fill="#FFFFFF" width="42.4" height="14.1"/>
			<path d="M217.1,195.8v13.1h-41.4v-13.1H217.1 M218.1,194.8h-43.4v15.1h43.4V194.8L218.1,194.8z"/>
		</g>
	</g>
	<g>
		<g>
			
				<line fill="none" stroke="#003E6E" stroke-width="4" stroke-linecap="round" stroke-linejoin="round" x1="319.7" y1="141.5" x2="683.2" y2="141.5"/>
			<g>
				<polygon fill="#003E6E" points="678.8,156.5 704.7,141.5 678.8,126.6 				"/>
			</g>
		</g>
	</g>
	<text transform="matrix(1 0 0 1 444.7376 129.1034)" fill="#003E6E" font-family="'Roboto-Regular'" font-size="32px">PUBLISH QoS 1 </text>
	<g>
		<path fill="#003E6E" d="M416.6,104.5c0.4-1.1,0.7-2.4,0.7-3.6c0-5.6-4.5-10.1-10.1-10.1c-2.1,0-4,0.6-5.6,1.7
			c-2.9-5.1-8.4-8.4-14.6-8.4c-9.3,0-16.8,7.5-16.8,16.8c0,0.3,0,0.6,0,0.9c-5.9,2.1-10.1,7.7-10.1,14.3c0,8.4,6.8,15.2,15.2,15.2
			h14.5v-10.9h-9.2L393.4,98l12.9,22.3h-9.2v10.9h16.8c7.4,0,13.5-6,13.5-13.5C427.4,111.1,422.7,105.7,416.6,104.5z"/>
	</g>
	<g>
		<g>
			
				<line fill="none" stroke="#B0B574" stroke-width="4" stroke-linecap="round" stroke-linejoin="round" x1="704.7" y1="241.5" x2="341.3" y2="241.5"/>
			<g>
				<polygon fill="#B0B574" points="345.6,226.6 319.7,241.5 345.6,256.5 				"/>
			</g>
		</g>
	</g>
	<g>
		<g>
			<g>
				
					<line fill="#0F3459" stroke="#000000" stroke-width="4" stroke-linejoin="round" stroke-miterlimit="10" x1="821.9" y1="224.9" x2="821.9" y2="242.1"/>
				<path fill="#89989F" stroke="#000000" stroke-width="2" stroke-miterlimit="10" d="M854.9,178.9h-66.1c-1.5,0-2.6-1.2-2.6-2.6
					v-12.3c0-1.5,1.2-2.6,2.6-2.6h66.1c1.5,0,2.6,1.2,2.6,2.6v12.3C857.6,177.7,856.4,178.9,854.9,178.9z"/>
				
					<rect x="830.7" y="166.4" fill="#FFFFFF" stroke="#4F4646" stroke-width="2" stroke-miterlimit="10" width="16.1" height="7.7"/>
				<path fill="#89989F" stroke="#000000" stroke-width="2" stroke-miterlimit="10" d="M854.9,202h-66.1c-1.5,0-2.6-1.2-2.6-2.6V187
					c0-1.5,1.2-2.6,2.6-2.6h66.1c1.5,0,2.6,1.2,2.6,2.6v12.3C857.6,200.8,856.4,202,854.9,202z"/>
				
					<rect x="830.7" y="189.5" fill="#FFFFFF" stroke="#4F4646" stroke-width="2" stroke-miterlimit="10" width="16.1" height="7.7"/>
				<path fill="#89989F" stroke="#000000" stroke-width="2" stroke-miterlimit="10" d="M854.9,225.1h-66.1c-1.5,0-2.6-1.2-2.6-2.6
					v-12.3c0-1.5,1.2-2.6,2.6-2.6h66.1c1.5,0,2.6,1.2,2.6,2.6v12.3C857.6,223.9,856.4,225.1,854.9,225.1z"/>
				
					<rect x="830.7" y="212.6" fill="#FFFFFF" stroke="#4F4646" stroke-width="2" stroke-miterlimit="10" width="16.1" height="7.7"/>
				
					<line fill="#0F3459" stroke="#000000" stroke-width="4" stroke-linecap="round" stroke-linejoin="round" stroke-miterlimit="10" x1="804.5" y1="240.7" x2="922.9" y2="240.7"/>
			</g>
			<g>
				
					<line fill="#0F3459" stroke="#000000" stroke-width="4" stroke-linejoin="round" stroke-miterlimit="10" x1="904.4" y1="224.9" x2="904.4" y2="242.1"/>
				<path fill="#89989F" stroke="#000000" stroke-width="2" stroke-miterlimit="10" d="M937.4,178.9h-66.1c-1.5,0-2.6-1.2-2.6-2.6
					v-12.3c0-1.5,1.2-2.6,2.6-2.6h66.1c1.5,0,2.6,1.2,2.6,2.6v12.3C940,177.7,938.9,178.9,937.4,178.9z"/>
				
					<rect x="913.2" y="166.4" fill="#FFFFFF" stroke="#4F4646" stroke-width="2" stroke-miterlimit="10" width="16.1" height="7.7"/>
				<path fill="#89989F" stroke="#000000" stroke-width="2" stroke-miterlimit="10" d="M937.4,202h-66.1c-1.5,0-2.6-1.2-2.6-2.6V187
					c0-1.5,1.2-2.6,2.6-2.6h66.1c1.5,0,2.6,1.2,2.6,2.6v12.3C940,200.8,938.9,202,937.4,202z"/>
				
					<rect x="913.2" y="189.5" fill="#FFFFFF" stroke="#4F4646" stroke-width="2" stroke-miterlimit="10" width="16.1" height="7.7"/>
				<path fill="#89989F" stroke="#000000" stroke-width="2" stroke-miterlimit="10" d="M937.4,225.1h-66.1c-1.5,0-2.6-1.2-2.6-2.6
					v-12.3c0-1.5,1.2-2.6,2.6-2.6h66.1c1.5,0,2.6,1.2,2.6,2.6v12.3C940,223.9,938.9,225.1,937.4,225.1z"/>
				
					<rect x="913.2" y="212.6" fill="#FFFFFF" stroke="#4F4646" stroke-width="2" stroke-miterlimit="10" width="16.1" height="7.7"/>
			</g>
		</g>
		<circle cx="822.2" cy="240.5" r="5"/>
		<circle cx="904.4" cy="240.5" r="5"/>
	</g>
	<g>
		<text transform="matrix(1 0 0 1 444.7376 226.1034)" fill="#B0B574" font-family="'Roboto-Regular'" font-size="32px">PUBACK </text>
		<path fill="#B0B574" d="M416.6,201.5c0.4-1.1,0.7-2.4,0.7-3.6c0-5.6-4.5-10.1-10.1-10.1c-2.1,0-4,0.6-5.6,1.7
			c-2.9-5.1-8.4-8.4-14.6-8.4c-9.3,0-16.8,7.5-16.8,16.8c0,0.3,0,0.6,0,0.9c-5.9,2.1-10.1,7.7-10.1,14.3c0,8.4,6.8,15.2,15.2,15.2
			h14.5h7.4h16.8c7.4,0,13.5-6,13.5-13.5C427.4,208.1,422.7,202.7,416.6,201.5z M387.1,221.6l-11.5-11.5l4.5-4.5l7,7l15-15l4.5,4.5
			L387.1,221.6z"/>
	</g>
</g>
</svg>
