<?xml version="1.0" standalone="no"?>
<!DOCTYPE svg PUBLIC "-//W3C//DTD SVG 20010904//EN"
 "http://www.w3.org/TR/2001/REC-SVG-20010904/DTD/svg10.dtd">
<svg version="1.0" xmlns="http://www.w3.org/2000/svg"
 width="225.000000pt" height="225.000000pt" viewBox="0 0 225.000000 225.000000"
 preserveAspectRatio="xMidYMid meet">
<metadata>
Created by potrace 1.11, written by Peter Selinger 2001-2013
</metadata>
<g transform="translate(0.000000,225.000000) scale(0.100000,-0.100000)"
fill="#000000" stroke="none">
<path d="M1315 2134 c-170 -62 -447 -163 -615 -224 l-305 -110 -197 0 -198 0
0 -675 0 -675 211 -2 211 -3 20 -55 c11 -30 35 -95 53 -145 18 -50 46 -125 61
-168 20 -53 34 -77 45 -77 13 0 675 237 924 330 28 10 112 41 189 69 l139 51
198 0 199 0 0 675 0 675 -216 2 -216 3 -82 222 c-58 159 -85 223 -96 222 -8
-1 -154 -52 -325 -115z m3 -225 c378 -96 630 -439 609 -830 -6 -121 -24 -195
-73 -298 -103 -220 -286 -375 -521 -443 -114 -33 -325 -33 -433 0 -138 43
-245 107 -345 207 -101 101 -143 166 -191 294 -148 394 20 822 398 1012 173
87 364 107 556 58z"/>
<path d="M1036 1690 c-165 -29 -296 -113 -385 -246 -255 -380 15 -894 469
-894 197 0 400 119 498 291 68 121 88 282 53 422 -23 90 -44 131 -105 214
-111 151 -345 245 -530 213z"/>
</g>
</svg>
