<?xml version="1.0"?>
<svg xmlns="http://www.w3.org/2000/svg" width="48" height="48" viewBox="0 0 48 48" fill="none">
<path fill-rule="evenodd" clip-rule="evenodd" d="M26.667 27.7139C26.6923 27.6509 26.7125 27.5889 26.727 27.5264C26.7283 27.5206 26.7297 27.5149 26.731 27.5092C26.7494 27.4312 26.7678 27.3533 26.7678 27.2758C26.7678 27.2174 26.7616 27.159 26.7518 27.1011C26.7389 27.0231 26.7461 26.9451 26.7678 26.8712L26.7673 23.0358C26.635 23.1552 26.4945 23.2724 26.3384 23.3861C24.3838 24.8494 20.5014 25.984 14.8839 25.984C9.24266 25.984 5.35043 24.8401 3.40405 23.368C3.27488 23.273 3.16017 23.1743 3.04754 23.0751C3.04053 23.0688 3.03284 23.0626 3.02516 23.0565C3.01643 23.0494 3.0077 23.0424 3 23.0353V26.8712C3.0217 26.9451 3.02893 27.0231 3.01602 27.1011C3.00672 27.159 3 27.2174 3 27.2758C3 27.3527 3.01813 27.4301 3.03598 27.5063C3.03743 27.5125 3.03887 27.5187 3.0403 27.5248C3.05477 27.5873 3.07492 27.6499 3.10024 27.7124C3.12142 27.7635 3.14622 27.8147 3.17412 27.8658C3.20926 27.9294 3.24801 27.9929 3.29348 28.0565C3.32758 28.1045 3.36633 28.1521 3.40664 28.1996C3.46399 28.2678 3.52496 28.335 3.59419 28.4022C3.63264 28.4401 3.67501 28.4772 3.7173 28.5143L3.72853 28.5241C3.81327 28.598 3.90163 28.6713 4.00031 28.7442C4.02954 28.7659 4.06048 28.7872 4.09145 28.8085C4.10538 28.818 4.11932 28.8276 4.1331 28.8372C4.24988 28.9178 4.37181 28.9979 4.50564 29.0764C4.52754 29.0896 4.55064 29.1024 4.5737 29.1152C4.58763 29.1229 4.60155 29.1307 4.61518 29.1384C4.76915 29.2258 4.92984 29.3115 5.10345 29.3952C5.11158 29.399 5.11991 29.4028 5.12831 29.4066C5.14285 29.4132 5.15756 29.4199 5.17165 29.4268C5.36489 29.5182 5.56795 29.6081 5.78445 29.6949C5.79065 29.6975 5.79685 29.7001 5.80305 29.7021C6.97645 30.1708 8.47744 30.565 10.2264 30.8234C10.2352 30.8249 10.244 30.826 10.2528 30.827C10.5928 30.8766 10.9415 30.9215 11.2996 30.9608C11.3291 30.9639 11.3593 30.9665 11.3897 30.9691C11.4194 30.9717 11.4492 30.9743 11.4784 30.9773C11.791 31.0099 12.1072 31.0399 12.4327 31.0636C12.5256 31.0704 12.6212 31.0752 12.7168 31.0799C12.7744 31.0828 12.832 31.0856 12.8889 31.0889C12.9498 31.0924 13.0106 31.096 13.0713 31.0997C13.2549 31.1106 13.4386 31.1216 13.6273 31.1282C14.0381 31.1427 14.4566 31.1509 14.8839 31.1509C15.3112 31.1509 15.7297 31.1427 16.14 31.1298C16.3458 31.1226 16.5458 31.1105 16.7461 31.0984C16.7901 31.0958 16.8342 31.0931 16.8783 31.0905C16.9418 31.0866 17.0061 31.0834 17.0704 31.0803C17.1593 31.0759 17.2482 31.0715 17.3346 31.0652C17.6601 31.0414 17.9763 31.0114 18.2889 30.9789C18.3181 30.9758 18.3479 30.9733 18.3776 30.9707C18.4079 30.9681 18.4382 30.9655 18.4677 30.9624C18.8257 30.9231 19.1745 30.8787 19.5145 30.8285C19.5232 30.827 19.532 30.826 19.5407 30.8249L19.5408 30.8249C21.2898 30.5666 22.7908 30.1723 23.9642 29.7037C23.9704 29.7011 23.9766 29.699 23.9828 29.6965C24.1993 29.6097 24.4019 29.5198 24.5956 29.4283C24.6 29.4263 24.6044 29.4243 24.6087 29.4224C24.6272 29.414 24.6459 29.4056 24.6638 29.3968C24.8374 29.3131 24.9981 29.2268 25.1521 29.14C25.1633 29.1337 25.1747 29.1274 25.186 29.1211C25.2116 29.1069 25.2373 29.0927 25.2616 29.078C25.3955 28.9994 25.5174 28.9194 25.6342 28.8388C25.6439 28.832 25.6537 28.8254 25.6634 28.8187C25.6987 28.7945 25.7338 28.7704 25.767 28.7458C25.8656 28.6729 25.954 28.5995 26.0387 28.5256L26.0406 28.524C26.0865 28.4837 26.1318 28.444 26.1731 28.4037C26.2423 28.3365 26.3033 28.2688 26.3606 28.2012C26.4009 28.1536 26.4397 28.1061 26.4738 28.058C26.5198 27.9945 26.5585 27.9309 26.5931 27.8674C26.621 27.8162 26.6464 27.7651 26.667 27.7139ZM26.7678 20.6709V16.835C26.7242 16.8746 26.6763 16.9137 26.6283 16.9528C26.6081 16.9693 26.5878 16.9858 26.5678 17.0024C26.5517 17.0157 26.5361 17.029 26.5205 17.0423C26.4997 17.06 26.4789 17.0777 26.4567 17.0954C26.3017 17.2179 26.1343 17.3377 25.953 17.455C25.931 17.4691 25.9075 17.4831 25.8839 17.4971C25.867 17.5071 25.85 17.5172 25.8336 17.5274C25.6817 17.6224 25.521 17.7149 25.3521 17.8053C25.29 17.8389 25.227 17.872 25.1624 17.9051C24.9738 18.0012 24.7759 18.0942 24.5677 18.1851C24.5534 18.1914 24.5397 18.1977 24.526 18.2041C24.507 18.2129 24.4881 18.2217 24.468 18.2301C24.2262 18.3329 23.9684 18.4311 23.7007 18.5261C23.6534 18.543 23.6046 18.5592 23.5557 18.5755C23.5282 18.5846 23.5007 18.5938 23.4734 18.6031C23.2605 18.6749 23.0404 18.7436 22.8125 18.8103C22.7865 18.8178 22.7606 18.8254 22.7347 18.833C22.6789 18.8494 22.6231 18.8657 22.5655 18.8816C22.2633 18.9648 21.9512 19.0449 21.6236 19.1182C21.6005 19.1233 21.5763 19.1281 21.5522 19.1329C21.5294 19.1374 21.5067 19.1419 21.4846 19.1467C21.1958 19.2097 20.8961 19.2681 20.5882 19.3229C20.4838 19.3415 20.3779 19.359 20.2714 19.3766C19.978 19.4246 19.6767 19.4686 19.3672 19.5089C19.3329 19.5133 19.2993 19.5181 19.2658 19.5228C19.2214 19.5291 19.177 19.5353 19.1311 19.5409C18.7467 19.5874 18.3488 19.6277 17.9401 19.6613C17.8835 19.6659 17.826 19.6697 17.7684 19.6735C17.7229 19.6766 17.6773 19.6796 17.6322 19.683C17.3051 19.7068 16.9708 19.7264 16.6288 19.7419L16.6141 19.7426C16.494 19.748 16.3748 19.7534 16.2531 19.7579C15.8077 19.7729 15.3541 19.7837 14.8839 19.7837C14.4137 19.7837 13.9601 19.7729 13.5147 19.7579C13.3901 19.7534 13.2684 19.7478 13.1464 19.7422L13.139 19.7419C12.797 19.7264 12.4627 19.7068 12.1356 19.683C12.1008 19.6805 12.0657 19.6782 12.0306 19.6758C11.9624 19.6713 11.8942 19.6667 11.8277 19.6613C11.419 19.6272 11.0211 19.5874 10.6367 19.5409C10.5908 19.5353 10.5464 19.5291 10.502 19.5228C10.4684 19.5181 10.4348 19.5133 10.4006 19.5089C10.0911 19.4686 9.78932 19.4246 9.49636 19.3766C9.38992 19.359 9.284 19.3415 9.17962 19.3229C8.87168 19.2681 8.572 19.2097 8.28317 19.1467C8.26328 19.1424 8.2428 19.1384 8.22229 19.1344C8.1959 19.1292 8.16947 19.1241 8.14418 19.1182C7.81659 19.0449 7.50451 18.9653 7.20225 18.8816C7.14518 18.8662 7.08978 18.8498 7.03443 18.8335C7.00809 18.8257 6.98176 18.818 6.95527 18.8103C6.72741 18.7436 6.5073 18.6749 6.29442 18.6031C6.26708 18.5938 6.23953 18.5846 6.21203 18.5755C6.16313 18.5592 6.11436 18.543 6.06708 18.5261C5.79943 18.4311 5.54212 18.3329 5.29979 18.2301C5.27968 18.2217 5.26078 18.2129 5.24179 18.2041C5.2281 18.1977 5.21436 18.1914 5.20007 18.1851C4.99184 18.0947 4.79395 18.0012 4.60536 17.9051C4.54077 17.872 4.47825 17.8389 4.41573 17.8053C4.24678 17.7144 4.08608 17.6219 3.93418 17.5274C3.91775 17.5172 3.90078 17.5071 3.88384 17.4971C3.86028 17.4831 3.83676 17.4691 3.81482 17.455C3.63346 17.3377 3.46606 17.2173 3.31105 17.0954C3.2858 17.0755 3.26248 17.0555 3.23916 17.0356C3.2262 17.0245 3.21324 17.0135 3.19996 17.0024C3.17999 16.9858 3.15971 16.9693 3.13943 16.9527C3.09149 16.9136 3.04357 16.8746 3 16.835V20.6709C3.0217 20.7448 3.02893 20.8228 3.01602 20.9008C3.00672 20.9587 3 21.0171 3 21.0755C3 21.1524 3.01813 21.2298 3.03599 21.3061C3.03743 21.3122 3.03887 21.3184 3.0403 21.3245C3.05477 21.387 3.07492 21.4496 3.10024 21.5121C3.12142 21.5632 3.14622 21.6144 3.17412 21.6655C3.20926 21.7291 3.24801 21.7926 3.29348 21.8562C3.32758 21.9042 3.36633 21.9518 3.40664 21.9993C3.46399 22.0675 3.52496 22.1347 3.59419 22.2019C3.63263 22.2398 3.675 22.2769 3.71728 22.3139C3.72103 22.3172 3.72479 22.3205 3.72853 22.3238C3.81327 22.3977 3.90163 22.4711 4.00031 22.5439C4.02954 22.5657 4.06049 22.5869 4.09146 22.6082C4.10539 22.6177 4.11932 22.6273 4.1331 22.6369C4.24988 22.7175 4.37181 22.7976 4.50564 22.8761C4.52754 22.8893 4.55064 22.9022 4.5737 22.9149C4.58764 22.9226 4.60155 22.9304 4.61518 22.9381C4.76915 23.0255 4.92984 23.1112 5.10345 23.1949C5.11157 23.1987 5.1199 23.2025 5.12829 23.2063C5.14284 23.2129 5.15756 23.2196 5.17165 23.2265C5.36489 23.3179 5.56795 23.4078 5.78445 23.4946L5.78449 23.4946C5.79067 23.4972 5.79686 23.4998 5.80305 23.5019C6.97645 23.9705 8.47744 24.3647 10.2264 24.6231C10.2352 24.6246 10.244 24.6257 10.2528 24.6267C10.5928 24.6763 10.9415 24.7212 11.2996 24.7605C11.3291 24.7636 11.3594 24.7662 11.3897 24.7689C11.4194 24.7714 11.4492 24.774 11.4784 24.777C11.791 24.8096 12.1072 24.8396 12.4327 24.8633C12.5255 24.8701 12.6212 24.8749 12.7168 24.8796C12.7744 24.8825 12.832 24.8853 12.8889 24.8887C12.9498 24.8921 13.0105 24.8957 13.0713 24.8994C13.2549 24.9103 13.4386 24.9213 13.6273 24.9279C14.0381 24.9424 14.4566 24.9507 14.8839 24.9507C15.3112 24.9507 15.7297 24.9424 16.14 24.9295C16.3459 24.9223 16.5458 24.9102 16.7462 24.8981C16.7902 24.8955 16.8342 24.8928 16.8783 24.8902C16.9418 24.8863 17.0061 24.8831 17.0704 24.88C17.1593 24.8756 17.2482 24.8712 17.3346 24.8649C17.6601 24.8411 17.9763 24.8111 18.2889 24.7786C18.3181 24.7755 18.3479 24.773 18.3776 24.7704C18.4079 24.7678 18.4382 24.7652 18.4677 24.7621C18.8257 24.7228 19.1745 24.6784 19.5145 24.6282C19.5233 24.6267 19.532 24.6257 19.5408 24.6246C21.2898 24.3663 22.7908 23.972 23.9642 23.5034C23.9673 23.5021 23.9704 23.501 23.9735 23.4998C23.9766 23.4986 23.9797 23.4975 23.9828 23.4962C24.1993 23.4094 24.4019 23.3195 24.5956 23.228C24.6184 23.2177 24.6416 23.2073 24.6638 23.1965C24.8374 23.1128 24.9981 23.0265 25.1521 22.9397C25.1633 22.9334 25.1746 22.9271 25.186 22.9208C25.2116 22.9066 25.2372 22.8924 25.2616 22.8777C25.3955 22.7992 25.5174 22.7191 25.6342 22.6385C25.6439 22.6318 25.6536 22.6251 25.6634 22.6184C25.6986 22.5942 25.7337 22.5702 25.767 22.5455C25.8656 22.4726 25.954 22.3992 26.0387 22.3254L26.0407 22.3237C26.0865 22.2834 26.1318 22.2437 26.1731 22.2034C26.2423 22.1362 26.3033 22.0686 26.3606 22.0009C26.4009 21.9533 26.4397 21.9058 26.4738 21.8577C26.5198 21.7942 26.5585 21.7306 26.5931 21.6671C26.621 21.6159 26.6464 21.5648 26.667 21.5136C26.6923 21.4506 26.7125 21.3886 26.727 21.3261C26.7283 21.3203 26.7297 21.3146 26.731 21.3089C26.7494 21.2309 26.7678 21.153 26.7678 21.0755C26.7678 21.0171 26.7616 20.9587 26.7518 20.9008C26.7389 20.8228 26.7461 20.7448 26.7678 20.6709ZM26.7678 14.8752C26.7678 13.042 21.8876 11 14.8839 11C7.88015 11 3 13.042 3 14.8752C3 16.7084 7.88015 18.7504 14.8839 18.7504C21.8876 18.7504 26.7678 16.7084 26.7678 14.8752ZM26.7513 33.6507C26.7554 33.6269 26.7606 33.6037 26.7678 33.5809L26.7673 29.2361C26.635 29.3554 26.4945 29.4727 26.3384 29.5864C24.3838 31.0497 20.5014 32.1843 14.8839 32.1843C9.24266 32.1843 5.35043 31.0404 3.40405 29.5683C3.27488 29.4733 3.16017 29.3746 3.04754 29.2754C3.04053 29.2691 3.03284 29.2629 3.02516 29.2567C3.01643 29.2497 3.0077 29.2427 3 29.2356V33.583C3.00672 33.6047 3.0124 33.6275 3.01653 33.6507C3.3095 35.4379 8.14831 37.3512 14.8839 37.3512C21.6195 37.3512 26.4583 35.4379 26.7513 33.6507Z" fill="#FF6112"/>
<path fill-rule="evenodd" clip-rule="evenodd" d="M41.1016 12.3665V18.7219C43.4962 18.0819 45 16.763 45 15.5442C45 14.3254 43.4962 13.0065 41.1016 12.3665ZM41.1016 19.7053V24.433C41.9755 24.198 42.7324 23.8724 43.3407 23.4943L43.3462 23.491L43.3517 23.4876C43.4798 23.4076 43.5997 23.3248 43.7144 23.2405L43.7221 23.2351C43.7331 23.2273 43.7441 23.2196 43.7547 23.2115C43.8575 23.1344 43.9526 23.0549 44.0437 22.9749L44.0638 22.9575C44.079 22.9444 44.0941 22.9313 44.1085 22.9178C44.1877 22.8454 44.2599 22.7716 44.329 22.6973L44.3463 22.6789L44.3463 22.6788C44.3672 22.6566 44.388 22.6344 44.4076 22.6116C44.466 22.5445 44.5183 22.4769 44.5685 22.4088L44.5697 22.4072C44.5968 22.3701 44.6236 22.3335 44.648 22.2965C44.689 22.2346 44.7251 22.1722 44.759 22.1098C44.7829 22.066 44.8058 22.0222 44.826 21.978C44.8532 21.9194 44.8761 21.8608 44.8966 21.8023C44.9131 21.7552 44.9281 21.708 44.9403 21.6609C44.9553 21.6028 44.9673 21.5457 44.9758 21.4881L44.9782 21.4722C44.9891 21.4004 45 21.3286 45 21.2572C45 21.2034 44.9963 21.1496 44.9905 21.0963C44.9829 21.0244 44.9871 20.9525 45 20.8844V17.35C44.9742 17.3864 44.9458 17.4224 44.9174 17.4585L44.9174 17.4586C44.9054 17.4738 44.8934 17.489 44.8816 17.5042C44.8721 17.5165 44.8628 17.5287 44.8536 17.5409L44.8536 17.5409C44.8413 17.5573 44.829 17.5736 44.8159 17.5899C44.7241 17.7027 44.6251 17.8132 44.5177 17.9213C44.5047 17.9343 44.4908 17.9471 44.4769 17.96C44.4668 17.9693 44.4568 17.9786 44.4471 17.9879C44.3572 18.0755 44.2621 18.1607 44.1621 18.2441C44.1254 18.275 44.0881 18.3055 44.0498 18.3359C43.9382 18.4245 43.8211 18.5102 43.6978 18.594C43.6894 18.5998 43.6813 18.6056 43.6731 18.6115C43.6619 18.6196 43.6507 18.6276 43.6388 18.6354C43.4957 18.7301 43.3431 18.8206 43.1847 18.9082C43.1567 18.9237 43.1278 18.9387 43.0989 18.9537L43.0989 18.9537C43.0826 18.9621 43.0663 18.9706 43.0501 18.9791C42.9241 19.0453 42.7939 19.1086 42.659 19.17L42.613 19.191C42.5799 19.206 42.5469 19.2211 42.5128 19.2357C42.3339 19.3124 42.1492 19.3862 41.9553 19.4538C41.9417 19.4584 41.9274 19.4628 41.9132 19.4672L41.9131 19.4673L41.9131 19.4673C41.8996 19.4714 41.8861 19.4756 41.8731 19.48C41.7021 19.538 41.5248 19.5918 41.3425 19.6423C41.2807 19.6594 41.218 19.6756 41.155 19.6918L41.1016 19.7053ZM41.1016 25.421V30.146C41.9755 29.911 42.7324 29.5854 43.3407 29.2073L43.3462 29.2039L43.3517 29.2006C43.4798 29.1206 43.5997 29.0378 43.7144 28.9535L43.7222 28.948C43.7331 28.9403 43.7441 28.9325 43.7547 28.9245C43.8575 28.8474 43.9526 28.7678 44.0437 28.6879L44.0638 28.6705C44.0789 28.6574 44.0941 28.6443 44.1085 28.6307C44.1877 28.5584 44.2599 28.4846 44.329 28.4103L44.3463 28.3918C44.3672 28.3696 44.388 28.3474 44.4076 28.3246C44.466 28.2575 44.5183 28.1899 44.5685 28.1218L44.5696 28.1202C44.5968 28.0832 44.6236 28.0465 44.648 28.0094C44.689 27.9476 44.7251 27.8852 44.759 27.8228C44.7829 27.779 44.8058 27.7352 44.826 27.6909C44.8532 27.6324 44.8761 27.5738 44.8966 27.5153C44.9131 27.4681 44.9281 27.421 44.9403 27.3739C44.9553 27.3158 44.9673 27.2587 44.9758 27.2011L44.9782 27.1852C44.9891 27.1134 45 27.0416 45 26.9702C45 26.9164 44.9963 26.8626 44.9905 26.8092C44.9829 26.7374 44.9871 26.6655 45 26.5974L44.9997 23.0634C44.9214 23.1734 44.8382 23.2815 44.7458 23.3862C43.9978 24.258 42.7728 25.0032 41.1016 25.421ZM41.1016 31.134V35.8579C43.3827 35.2452 44.8669 34.0153 44.9902 32.8441C44.9926 32.8222 44.9957 32.8007 45 32.7798L44.9997 28.7764C44.9214 28.8864 44.8382 28.9945 44.7458 29.0992C43.9978 29.971 42.7728 30.7162 41.1016 31.134Z" fill="#FF6112"/>
<path fill-rule="evenodd" clip-rule="evenodd" d="M35.1694 12.3632V18.7186C37.5639 18.0785 39.0676 16.7596 39.0676 15.5409C39.0676 14.3221 37.5639 13.0033 35.1694 12.3632ZM35.1694 19.7019V24.4296C36.0433 24.1947 36.8001 23.8691 37.4083 23.491L37.4138 23.4876L37.4193 23.4843C37.5474 23.4043 37.6673 23.3215 37.782 23.2372L37.7897 23.2318C37.8007 23.224 37.8117 23.2163 37.8223 23.2082C37.9251 23.1311 38.0202 23.0516 38.1113 22.9716L38.1314 22.9542C38.1466 22.9411 38.1617 22.928 38.1762 22.9144C38.2554 22.8421 38.3275 22.7683 38.3966 22.694L38.4139 22.6756C38.4348 22.6533 38.4556 22.6311 38.4752 22.6083C38.5336 22.5412 38.5859 22.4736 38.6361 22.4055L38.6373 22.4039L38.6373 22.4039C38.6644 22.3668 38.6912 22.3302 38.7156 22.2932C38.7566 22.2313 38.7927 22.1689 38.8266 22.1065C38.8505 22.0627 38.8734 22.0189 38.8936 21.9747C38.9208 21.9161 38.9437 21.8575 38.9642 21.799C38.9807 21.7519 38.9957 21.7047 39.008 21.6576C39.0229 21.5995 39.0349 21.5424 39.0434 21.4848L39.0458 21.4689C39.0567 21.3971 39.0676 21.3253 39.0676 21.2539C39.0676 21.2001 39.0639 21.1463 39.0581 21.093C39.0505 21.0211 39.0547 20.9492 39.0676 20.8811V17.3467C39.0418 17.3831 39.0134 17.4191 38.9851 17.4552C38.9731 17.4704 38.9611 17.4856 38.9492 17.5009C38.9397 17.5132 38.9305 17.5254 38.9212 17.5376L38.9212 17.5376C38.9089 17.554 38.8966 17.5703 38.8835 17.5866C38.7918 17.6994 38.6927 17.8099 38.5853 17.918C38.5723 17.931 38.5584 17.9438 38.5445 17.9567C38.5345 17.966 38.5244 17.9753 38.5147 17.9846C38.4248 18.0722 38.3297 18.1574 38.2297 18.2407C38.193 18.2717 38.1557 18.3022 38.1174 18.3326C38.0058 18.4212 37.8887 18.5069 37.7655 18.5907C37.757 18.5965 37.7489 18.6023 37.7408 18.6082C37.7295 18.6163 37.7183 18.6243 37.7064 18.6321C37.5633 18.7268 37.4107 18.8173 37.2523 18.9049C37.2243 18.9204 37.1955 18.9354 37.1665 18.9504C37.1502 18.9588 37.1339 18.9673 37.1177 18.9758C36.9918 19.042 36.8615 19.1053 36.7266 19.1667L36.6806 19.1876C36.6475 19.2027 36.6145 19.2178 36.5804 19.2324C36.4015 19.3091 36.2168 19.3829 36.023 19.4505C36.0093 19.4551 35.995 19.4595 35.9808 19.4639L35.9807 19.464L35.9807 19.464C35.9672 19.4681 35.9537 19.4723 35.9407 19.4767C35.7697 19.5347 35.5924 19.5885 35.4101 19.639C35.3483 19.6561 35.2856 19.6723 35.2226 19.6885L35.1694 19.7019ZM35.1694 25.4176V30.1426C36.0433 29.9076 36.8001 29.5821 37.4083 29.204L37.4138 29.2006L37.4193 29.1973C37.5474 29.1173 37.6673 29.0345 37.782 28.9502L37.7897 28.9447C37.8007 28.937 37.8117 28.9293 37.8223 28.9212C37.9251 28.844 38.0202 28.7645 38.1113 28.6846L38.1314 28.6672C38.1466 28.6541 38.1617 28.641 38.1762 28.6274C38.2554 28.5551 38.3275 28.4813 38.3966 28.407L38.414 28.3885C38.4348 28.3662 38.4556 28.3441 38.4752 28.3213C38.5336 28.2542 38.5859 28.1866 38.6361 28.1185L38.6372 28.117L38.6373 28.1169C38.6644 28.0798 38.6912 28.0432 38.7156 28.0061C38.7566 27.9443 38.7927 27.8819 38.8266 27.8195C38.8505 27.7757 38.8734 27.7319 38.8936 27.6876C38.9208 27.6291 38.9437 27.5705 38.9642 27.512C38.9807 27.4648 38.9957 27.4177 39.008 27.3706C39.0229 27.3125 39.0349 27.2554 39.0434 27.1978L39.0458 27.1819C39.0567 27.1101 39.0676 27.0383 39.0676 26.9669C39.0676 26.9131 39.0639 26.8593 39.0581 26.8059C39.0505 26.7341 39.0547 26.6622 39.0676 26.5941L39.0673 23.0601C38.989 23.1701 38.9058 23.2782 38.8135 23.3829C38.0655 24.2546 36.8405 24.9998 35.1694 25.4176ZM35.1694 31.1306V35.8546C37.4504 35.2418 38.9345 34.0119 39.0578 32.8408C39.0603 32.8189 39.0633 32.7974 39.0676 32.7765L39.0673 28.7731C38.989 28.8831 38.9058 28.9912 38.8135 29.0959C38.0655 29.9676 36.8405 30.7128 35.1694 31.1306Z" fill="#FF6112"/>
<path fill-rule="evenodd" clip-rule="evenodd" d="M29.2314 12.3632V18.7186C31.6259 18.0785 33.1296 16.7596 33.1296 15.5409C33.1296 14.3221 31.6259 13.0033 29.2314 12.3632ZM29.2314 19.7019V24.4296C30.1053 24.1947 30.8621 23.8691 31.4703 23.491L31.4758 23.4876L31.4813 23.4843C31.6094 23.4043 31.7293 23.3215 31.844 23.2372L31.8517 23.2318C31.8627 23.224 31.8737 23.2163 31.8843 23.2082C31.9871 23.1311 32.0822 23.0516 32.1733 22.9716L32.1934 22.9542C32.2086 22.9411 32.2237 22.928 32.2382 22.9144C32.3174 22.8421 32.3895 22.7683 32.4587 22.694L32.4759 22.6756C32.4968 22.6533 32.5176 22.6311 32.5373 22.6083C32.5957 22.5412 32.648 22.4736 32.6981 22.4055L32.6993 22.4039L32.6993 22.4039C32.7264 22.3668 32.7532 22.3302 32.7776 22.2932C32.8186 22.2313 32.8547 22.1689 32.8886 22.1065C32.9125 22.0627 32.9354 22.0189 32.9556 21.9747C32.9828 21.9161 33.0057 21.8575 33.0262 21.799C33.0428 21.7519 33.0577 21.7047 33.07 21.6576C33.085 21.5995 33.0969 21.5424 33.1054 21.4848L33.1078 21.4689C33.1187 21.3971 33.1296 21.3253 33.1296 21.2539C33.1296 21.2001 33.1259 21.1463 33.1201 21.093C33.1125 21.0211 33.1168 20.9492 33.1296 20.8811V17.3467C33.1038 17.3831 33.0755 17.4191 33.0471 17.4552L33.047 17.4553C33.035 17.4705 33.023 17.4857 33.0113 17.5009C33.0017 17.5132 32.9925 17.5254 32.9832 17.5376L32.9832 17.5376C32.9709 17.554 32.9586 17.5703 32.9455 17.5866C32.8538 17.6994 32.7547 17.8099 32.6473 17.918C32.6344 17.931 32.6204 17.9438 32.6065 17.9567C32.5965 17.966 32.5864 17.9753 32.5767 17.9846C32.4868 18.0722 32.3917 18.1574 32.2917 18.2407C32.255 18.2717 32.2177 18.3022 32.1795 18.3326C32.0678 18.4212 31.9507 18.5069 31.8275 18.5907C31.819 18.5965 31.8109 18.6023 31.8028 18.6082C31.7915 18.6163 31.7804 18.6243 31.7684 18.6321C31.6253 18.7268 31.4727 18.8173 31.3143 18.9049C31.2863 18.9204 31.2575 18.9354 31.2285 18.9504C31.2122 18.9588 31.1959 18.9673 31.1798 18.9758C31.0538 19.042 30.9235 19.1053 30.7886 19.1667L30.7426 19.1876C30.7096 19.2027 30.6765 19.2178 30.6425 19.2324C30.4636 19.3091 30.2788 19.3829 30.085 19.4505C30.0713 19.4551 30.057 19.4595 30.0428 19.4639L30.0427 19.464L30.0427 19.464C30.0292 19.4681 30.0157 19.4723 30.0027 19.4767C29.8318 19.5347 29.6544 19.5885 29.4721 19.639C29.4103 19.6561 29.3477 19.6723 29.2847 19.6885L29.2314 19.7019ZM29.2314 25.4176V30.1426C30.1053 29.9076 30.8621 29.5821 31.4703 29.204L31.4758 29.2006L31.4813 29.1973C31.6094 29.1173 31.7293 29.0345 31.844 28.9502L31.8518 28.9447L31.8518 28.9447C31.8627 28.937 31.8737 28.9292 31.8843 28.9212C31.9871 28.844 32.0822 28.7645 32.1733 28.6846L32.1934 28.6672C32.2086 28.6541 32.2237 28.641 32.2382 28.6274C32.3174 28.5551 32.3895 28.4813 32.4587 28.407L32.476 28.3885C32.4968 28.3662 32.5176 28.3441 32.5373 28.3213C32.5957 28.2542 32.648 28.1866 32.6981 28.1185L32.6992 28.117L32.6993 28.1169C32.7264 28.0798 32.7532 28.0432 32.7776 28.0061C32.8186 27.9443 32.8547 27.8819 32.8886 27.8195C32.9125 27.7757 32.9354 27.7319 32.9556 27.6876C32.9828 27.6291 33.0057 27.5705 33.0262 27.512C33.0428 27.4648 33.0577 27.4177 33.07 27.3706C33.085 27.3125 33.0969 27.2554 33.1054 27.1978L33.1078 27.1819C33.1187 27.1101 33.1296 27.0383 33.1296 26.9669C33.1296 26.9131 33.1259 26.8593 33.1201 26.8059C33.1125 26.7341 33.1168 26.6622 33.1296 26.5941L33.1293 23.0601C33.051 23.1701 32.9678 23.2782 32.8755 23.3829C32.1275 24.2546 30.9025 24.9998 29.2314 25.4176ZM29.2314 31.1306V35.8546C31.5124 35.2418 32.9965 34.0119 33.1198 32.8408C33.1223 32.8189 33.1253 32.7974 33.1296 32.7765L33.1293 28.7731C33.051 28.8831 32.9678 28.9912 32.8755 29.0959C32.1275 29.9676 30.9025 30.7128 29.2314 31.1306Z" fill="#FF6112"/>
</svg>
