<svg xmlns="http://www.w3.org/2000/svg" xmlns:xlink="http://www.w3.org/1999/xlink" version="1.1" x="0px" y="0px" viewBox="0 0 64 80" style="enable-background:new 0 0 64 64;" xml:space="preserve"><path d="M3,51h17v5h-6c-0.379,0-0.725,0.214-0.895,0.553l-2,4c-0.155,0.31-0.138,0.678,0.044,0.973S11.653,62,12,62h40  c0.347,0,0.668-0.18,0.851-0.475s0.199-0.663,0.044-0.973l-2-4C50.725,56.214,50.379,56,50,56h-6v-5h17c0.552,0,1-0.447,1-1V4  c0-0.553-0.448-1-1-1H3C2.448,3,2,3.447,2,4v46C2,50.553,2.448,51,3,51z M50.382,60H13.618l1-2H21h22h6.382L50.382,60z M42,56H22v-5  h20V56z M4,5h56v44H43H21H4V5z"/><path d="M58,46V8c0-0.553-0.448-1-1-1H7C6.448,7,6,7.447,6,8v38c0,0.553,0.448,1,1,1h50C57.552,47,58,46.553,58,46z M56,45H8V9h48  V45z"/><polygon points="17,13 11,13 11,15 14,15 17,15 "/><path d="M43.675,35.946c0.361,0.121,0.761,0.03,1.032-0.239L46,34.414l3.293,3.293C49.488,37.902,49.744,38,50,38  s0.512-0.098,0.707-0.293l3-3c0.391-0.391,0.391-1.023,0-1.414L50.414,30l1.293-1.293c0.27-0.27,0.363-0.67,0.239-1.031  s-0.443-0.621-0.822-0.668l-8-1c-0.306-0.033-0.613,0.067-0.831,0.285s-0.324,0.524-0.285,0.831l1,8  C43.055,35.503,43.314,35.822,43.675,35.946z M48.847,28.738l-0.554,0.555c-0.391,0.391-0.391,1.023,0,1.414L51.586,34L50,35.586  l-3.293-3.293C46.512,32.098,46.256,32,46,32s-0.512,0.098-0.707,0.293l-0.554,0.554l-0.587-4.695L48.847,28.738z"/><polygon points="11,34 17,34 17,32 14,32 11,32 "/><path d="M11.707,27.293l-1.414,1.414l3,3C13.488,31.902,13.744,32,14,32s0.512-0.098,0.707-0.293l3-3l-1.414-1.414L15,28.586V18.414  l1.293,1.293l1.414-1.414l-3-3C14.512,15.098,14.256,15,14,15s-0.512,0.098-0.707,0.293l-3,3l1.414,1.414L13,18.414v10.172  L11.707,27.293z"/><path d="M19.804,23.98L21,24.22V30c0,0.459,0.312,0.858,0.757,0.97l8,2C29.837,32.99,29.919,33,30,33  c0.106,0,0.213-0.017,0.316-0.052l0.006-0.002c0.001,0,0.002-0.001,0.003-0.001l8.991-2.997C39.725,29.812,40,29.431,40,29v-5.956  l0.287-0.086c0.299-0.09,0.539-0.313,0.648-0.605c0.11-0.292,0.078-0.618-0.087-0.883l-5-8c-0.225-0.358-0.651-0.536-1.065-0.446  l-9,2c-0.016,0.003-0.027,0.016-0.042,0.02c-0.121,0.033-0.235,0.084-0.337,0.159c-0.016,0.012-0.028,0.026-0.043,0.038  c-0.041,0.035-0.085,0.067-0.12,0.109l-6,7c-0.231,0.27-0.302,0.641-0.186,0.977S19.456,23.911,19.804,23.98z M23,24.62l6,1.2v4.898  l-6-1.5V24.62z M38,28.279l-7,2.333v-4.868l7-2.1V28.279z M34.527,15.13l3.93,6.289l-7.901,2.37l-3.146-7.078L34.527,15.13z   M25.729,17.853l2.572,5.788l-0.105-0.021l-6.326-1.265L25.729,17.853z"/><polygon points="20,38 20,35 18,35 18,41 20,41 "/><polygon points="41,41 41,35 39,35 39,38 39,41 "/><path d="M23.293,41.707l1.414-1.414L23.414,39h12.172l-1.293,1.293l1.414,1.414l3-3C38.902,38.512,39,38.256,39,38  s-0.098-0.512-0.293-0.707l-3-3l-1.414,1.414L35.586,37H23.414l1.293-1.293l-1.414-1.414l-3,3C20.098,37.488,20,37.744,20,38  s0.098,0.512,0.293,0.707L23.293,41.707z"/><path d="M41.994,14.747c-0.681-0.266-1.393-0.463-2.118-0.587l-0.338,1.971c0.592,0.102,1.174,0.263,1.729,0.479L41.994,14.747z"/><path d="M45.668,17.11c-0.527-0.513-1.105-0.972-1.72-1.367l-1.081,1.684c0.502,0.322,0.975,0.698,1.406,1.117L45.668,17.11z"/><path d="M46.294,21.496l1.842-0.779c-0.284-0.673-0.639-1.32-1.053-1.927l-1.65,1.131C45.771,20.416,46.062,20.946,46.294,21.496z"/><path d="M47,25h2c0-0.733-0.073-1.468-0.216-2.183l-1.961,0.395C46.94,23.797,47,24.398,47,25z"/></svg>