<svg xmlns:dc="http://purl.org/dc/elements/1.1/" xmlns:cc="http://creativecommons.org/ns#" xmlns:rdf="http://www.w3.org/1999/02/22-rdf-syntax-ns#" xmlns:svg="http://www.w3.org/2000/svg" xmlns="http://www.w3.org/2000/svg" xmlns:sodipodi="http://sodipodi.sourceforge.net/DTD/sodipodi-0.dtd" xmlns:inkscape="http://www.inkscape.org/namespaces/inkscape" version="1.1" x="0px" y="0px" viewBox="0 0 100 125"><g transform="translate(0,-952.36218)"><path style="color:#000000;enable-background:accumulate;" d="m 60,958.36216 0,6 -8,0 0,3.5 c 0,0.76753 0.064,1.07831 0.2812,1.40625 0.2174,0.32795 0.7471,0.82232 2.125,1.4375 a 2.0002,2.0002 0 0 1 0.031,0.0312 c 3.8158,1.76977 6.5625,5.64296 6.5625,10.25 0,3.52101 -1.5897,6.68394 -4.0625,8.78125 l 23.594,12.59384 -8.5,0 -19.4062,-10.3438 c -0.8431,0.21548 -1.7167,0.34375 -2.625,0.34375 -0.9083,0 -1.7819,-0.12827 -2.625,-0.34375 l -19.4062,10.3438 -8.5,0 23.5937,-12.5938 C 40.5897,987.67112 39,984.50818 39,980.98716 a 2.0002,2.0002 0 1 1 4,0 c 0,2.99726 1.6594,5.52309 4.0312,6.6875 l 2.0313,-1.09375 a 2.0001999,2.0001999 0 0 1 1.1563,-0.21875 2.0001999,2.0001999 0 0 1 0.7187,0.21875 l 2.0313,1.09375 C 55.3406,986.51025 57,983.98443 57,980.98716 c 0,-3.02574 -1.7509,-5.47002 -4.2188,-6.625 -0.01,-0.004 -0.022,0.004 -0.031,0 -1.7575,-0.78813 -3.0215,-1.71276 -3.8125,-2.90625 -0.7951,-1.19974 -0.9375,-2.50329 -0.9375,-3.59375 l 0,-3.5 -8,0 0,-6 20,0 z m 29,46.00004 0,42 -78,0 0,-42 78,0 z m -11,7 -4,0 0,28 4,0 0,-28 z m -13,0 -4,0 0,28 4,0 0,-28 z m -13,0 -4,0 0,28 4,0 0,-28 z m -13,0 -4,0 0,28 4,0 0,-28 z m -13,0 -4,0 0,28 4,0 0,-28 z" fill="#000000" fill-opacity="1" fill-rule="nonzero" stroke="none" marker="none" visibility="visible" display="inline" overflow="visible"/></g></svg>