<svg xmlns="http://www.w3.org/2000/svg" xmlns:xlink="http://www.w3.org/1999/xlink" version="1.1" x="0px" y="0px" viewBox="0 0 100 125" enable-background="new 0 0 100 100" xml:space="preserve"><path fill="#000000" d="M50,91.7c24.3,0,37.5-7.3,37.5-11.1v-8.7C78.8,77,64.3,79.6,50,79.6S21.2,77,12.5,71.8v8.7  C12.5,84.3,25.7,91.7,50,91.7z"/><path fill="#000000" d="M50,71.3c24.3,0,37.5-7.3,37.5-11.1v-8.7c-8.7,5.1-23.2,7.8-37.5,7.8s-28.8-2.6-37.5-7.8v8.7  C12.5,64,25.7,71.3,50,71.3z"/><path fill="#000000" d="M87.5,31.1c-8.7,5.1-23.2,7.8-37.5,7.8s-28.8-2.6-37.5-7.8v8.7l0,0h0c0,3.8,13.2,11.1,37.5,11.1  s37.5-7.3,37.5-11.1h0l0,0V31.1z"/><path fill="#000000" d="M50,30.6c24.3,0,37.5-7.3,37.5-11.1c0-3.8-13.2-11.1-37.5-11.1s-37.5,7.3-37.5,11.1  C12.5,23.2,25.7,30.6,50,30.6z"/></svg>