<svg xmlns="http://www.w3.org/2000/svg" data-name="Layer 3" viewBox="0 0 100 125" x="0px" y="0px"><title>design_icons</title><path d="M93,93l-5.4-31.38L73.42,47.44,92.25,28.61,71.39,7.75,52.56,26.58,37.12,11.13S26.66.67,14.17,13.16l-1,1c-12.49,12.49-2,22.95-2,22.95L26.58,52.56,7.75,71.39,28.61,92.25,47.44,73.42,61.58,87.57ZM65.23,73.09l5.55-.49a2,2,0,0,0,1.8-1.7l.83-5.6,9,.11,1.66,9.65-9,9L65,82.35Zm6.85-11.8L35.83,25l3.54-3.54L79.26,61.38ZM33,27.86l36.5,36.5-.65,4.39L64,69.18,27.86,33Zm46.89,57,5-5L86,86ZM60.08,24.72l4.54,4.54,2.83-2.83L62.9,21.89l8.49-8.49,15.2,15.2-16,16,1.71,1.71L55.39,29.41ZM18.22,17.21c5.77-5.77,11.2-5.36,14.89-2l3.44,3.44-17.9,17.9c-5.8-6-5.3-6.05-5.71-8C11.95,23.9,15.19,20.24,18.22,17.21Zm3.23,22.21L25,35.83,61.26,72.06,61.08,79C39.72,57.62,28,46,21.45,39.42Zm7.16,47.17-15.2-15.2,8.49-8.49,4.54,4.54,2.83-2.83-4.54-4.54,4.69-4.69,15.2,15.2Z"/><path d="M25.42,72.16a2.42,2.42,0,0,0,0,4.84A2.42,2.42,0,0,0,25.42,72.16Z"/></svg>