<svg xmlns="http://www.w3.org/2000/svg" xmlns:xlink="http://www.w3.org/1999/xlink" version="1.1" x="0px" y="0px" viewBox="0 0 512 640" enable-background="new 0 0 512 512" xml:space="preserve"><g><path d="M162.3,162.3h-37.5c-31,0-56.3,25.2-56.3,56.3v93.8H106v131.3h75V312.3h37.5v-93.8C218.5,187.5,193.3,162.3,162.3,162.3z"/><circle cx="143.5" cy="106" r="37.5"/><path d="M373.7,274.8c6.5,11.2,18.5,18.8,32.3,18.8c20.7,0,37.5-16.8,37.5-37.5c0-20.7-16.8-37.5-37.5-37.5   c-13.8,0-25.8,7.6-32.3,18.8H331v-93.8h42.7c6.5,11.2,18.5,18.8,32.3,18.8c20.7,0,37.5-16.8,37.5-37.5c0-20.7-16.8-37.5-37.5-37.5   c-13.8,0-25.8,7.6-32.3,18.8h-80.2v131.3H256v37.5h37.5V406h80.2c6.5,11.2,18.5,18.8,32.3,18.8c20.7,0,37.5-16.8,37.5-37.5   c0-20.7-16.8-37.5-37.5-37.5c-13.8,0-25.8,7.6-32.3,18.8H331v-93.8H373.7z"/></g></svg>