<svg xmlns="http://www.w3.org/2000/svg" xmlns:xlink="http://www.w3.org/1999/xlink" version="1.1" x="0px" y="0px" viewBox="0 0 512 640" enable-background="new 0 0 512 512" xml:space="preserve"><g><path d="M252.4,322.8c-53-14.4-89.9-14.4-142.9,0c-24.2,6.6-41.1,28.9-41.1,54.2v66.5h225V377C293.5,351.7,276.6,329.4,252.4,322.8   z"/><path d="M181,293.5c31,0,56.3-25.2,56.3-56.3S212,181,181,181s-56.3,25.2-56.3,56.3S150,293.5,181,293.5z"/><polygon points="256,68.5 256,218.5 274.8,218.5 274.8,272.4 355.2,218.5 443.5,218.5 443.5,68.5  "/></g><text x="0" y="527" fill="#000000" font-size="5px" font-weight="bold" font-family="'Helvetica Neue', Helvetica, Arial-Unicode, Arial, Sans-serif">Created by Creative Stall</text><text x="0" y="532" fill="#000000" font-size="5px" font-weight="bold" font-family="'Helvetica Neue', Helvetica, Arial-Unicode, Arial, Sans-serif">from the Noun Project</text></svg>