<svg xmlns="http://www.w3.org/2000/svg" xmlns:xlink="http://www.w3.org/1999/xlink" version="1.1" x="0px" y="0px" viewBox="0 0 512 640" enable-background="new 0 0 512 512" xml:space="preserve"><g><path d="M402.4,322.8c-53-14.4-89.9-14.4-142.9,0c-24.2,6.6-41.1,28.9-41.1,54.2v66.5h225V377C443.5,351.7,426.6,329.4,402.4,322.8   z"/><path d="M274.8,237.3c0,31,25.2,56.3,56.3,56.3c31,0,56.2-25.2,56.2-56.3S362,181,331,181C300,181,274.8,206.2,274.8,237.3z"/><path d="M106,199.8c0-51.7,42.1-93.8,93.8-93.8c39.7,0,75.2,25.1,88.4,62.5l35.4-12.5c-18.5-52.3-68.2-87.5-123.8-87.5   c-72.4,0-131.3,58.9-131.3,131.3c0,72.4,58.9,131.3,131.3,131.3v-37.5C148.1,293.5,106,251.4,106,199.8z"/><polygon points="181,181 162.3,181 162.3,218.5 218.5,218.5 218.5,143.5 181,143.5  "/></g></svg>