<svg xmlns="http://www.w3.org/2000/svg" xmlns:xlink="http://www.w3.org/1999/xlink" version="1.1" x="0px" y="0px" viewBox="0 0 50 62.5" enable-background="new 0 0 50 50" xml:space="preserve"><g><path fill="#000000" d="M40.661,2.489l-5.732,3.987l-0.224,3.922l4.682,4.461l3.323-0.387l4.506-5.021c0,0,1.736-0.644,1.314,2.305   c-0.426,2.952-0.582,3.689-0.582,3.689s-2.19,5.961-7.257,5.381c-0.396-0.057-3.856-0.502-3.856-0.502s-2.498-0.004-4.367,2.02   c-1.873,2.025-5.498,5.529-5.498,5.529l-4.094-4.824l4.182-4.494c0,0,2.377-3.178,1.924-4.621   c-0.453-1.438-0.947-4.367-0.658-6.367c0.293-2.002,0.243-1.702,0.243-1.702s1.06-5.56,8.134-4.741   c1.758,0.203,3.191,0.512,3.191,0.512S40.829,1.52,40.661,2.489z"/><path fill="#000000" d="M22.799,23.048l4.213-4.522c0.006-0.006,1.73-2.318,1.953-3.868l0,0c0.039-0.261,0.037-0.501-0.029-0.702   l0,0c-0.456-1.453-0.951-4.383-0.667-6.396l0,0c0.189-1.309,0.239-1.633,0.246-1.695l0,0l0.003-0.021   c0-0.004,0.004-0.006,0.004-0.012l0,0c0.044-0.199,0.352-1.482,1.422-2.674l0,0c1.156-1.305,3.215-2.496,6.763-2.08l0,0   c0.347,0.037,0.688,0.08,1.005,0.123l0,0c1.198,0.176,2.086,0.365,2.182,0.379l0,0c0.027-0.002,0.126-0.004,0.247,0.007l0,0   c0.138,0.025,0.304,0.076,0.431,0.21l0,0c0.12,0.129,0.189,0.345,0.143,0.658l0,0c-0.002,0.014-0.002,0.028-0.006,0.043l0,0   l-0.002,0.021l-5.735,3.986l-0.213,3.875l4.651,4.425l3.273-0.379l4.503-5.019L47.2,9.404c0.005,0,0.254-0.096,0.548-0.057l0,0   c0.244,0.039,0.535,0.179,0.712,0.541l0,0c0.18,0.365,0.258,0.941,0.123,1.879l0,0c-0.43,2.949-0.585,3.69-0.591,3.695l0,0   c0,0.003-2.188,5.994-7.308,5.414l0,0c-0.402-0.056-3.846-0.503-3.846-0.503l0,0c-0.004,0-0.619-0.003-1.473,0.247l0,0   c-0.855,0.252-1.934,0.756-2.861,1.758l0,0c-1.878,2.029-5.492,5.535-5.492,5.535l0,0l-0.043,0.039L22.799,23.048L22.799,23.048z"/><path fill="#000000" d="M28.376,7.572c-0.285,1.98,0.21,4.911,0.658,6.348l0,0c0.066,0.221,0.078,0.477,0.039,0.754l0,0   c-0.238,1.598-1.975,3.904-1.975,3.916l0,0l-4.155,4.459l4.034,4.75c0.396-0.39,3.692-3.594,5.447-5.494l0,0   c1.891-2.041,4.408-2.039,4.419-2.039l0,0c0,0,3.453,0.451,3.848,0.511l0,0c2.518,0.288,4.313-1.045,5.486-2.454l0,0   c1.171-1.404,1.716-2.885,1.716-2.885l0,0c0-0.008,0.154-0.742,0.582-3.69l0,0c0.264-1.843-0.308-2.228-0.743-2.296l0,0   c-0.228-0.033-0.433,0.033-0.485,0.045l0,0l-4.512,5.029l-3.365,0.389l-4.721-4.498l0.227-3.968l5.732-3.992   c0.006-0.009,0.006-0.016,0.006-0.017l0,0c0.077-0.588-0.241-0.699-0.49-0.745l0,0c-0.127-0.02-0.229-0.011-0.229-0.011l0,0h-0.004   H39.88c0,0-0.921-0.197-2.176-0.376l0,0c-0.32-0.047-0.656-0.089-1.008-0.136l0,0c-3.529-0.404-5.537,0.773-6.674,2.051l0,0   c-1.129,1.263-1.396,2.628-1.402,2.654l0,0l0,0l0,0C28.61,5.947,28.56,6.281,28.376,7.572L28.376,7.572z"/><path fill="#000000" d="M28.892,26.023L6.363,48.549c-0.832,0.84-2.529,0.496-3.786-0.764l0,0   c-1.264-1.268-1.608-2.955-0.768-3.789l22.524-22.533C25.417,22.559,27.597,24.68,28.892,26.023z"/><path fill="#000000" d="M40.952,34.336c6.18,1.707,10.972,11.482,8.779,13.863c-2.201,2.386-12.98-2.158-15.395-8.122   c-6.504-5.997-10.335-11.188-8.14-13.574C28.396,24.123,34.452,28.342,40.952,34.336z"/><path fill="#000000" d="M-0.271,5.947l2.438-2.823l4.562,1.495l2.115,4.308l18.741,16.29c0.852,0.739,0.994,1.97,0.314,2.75   c-0.674,0.775-1.909,0.811-2.76,0.07L6.391,11.746l-4.552-1.492L-0.271,5.947z"/></g></svg>