<?xml version="1.0" standalone="no"?>
<!DOCTYPE svg PUBLIC "-//W3C//DTD SVG 1.1//EN" "http://www.w3.org/Graphics/SVG/1.1/DTD/svg11.dtd" >
<svg xmlns="http://www.w3.org/2000/svg" xmlns:xlink="http://www.w3.org/1999/xlink" version="1.1">
<metadata>
Created by FontForge 20161013 at Sun Dec  4 16:11:10 2016
 By ,,,
</metadata>
<defs>
<font id="FuturaBT-Medium" horiz-adv-x="1204" >
  <font-face 
    font-family="Futura Md BT"
    font-weight="400"
    font-stretch="normal"
    units-per-em="2048"
    panose-1="2 11 6 2 2 2 4 2 3 3"
    ascent="1638"
    descent="-410"
    x-height="948"
    cap-height="1464"
    bbox="-92 -483 2195 1972"
    underline-thickness="145"
    underline-position="-439"
    unicode-range="U+000D-25FC"
  />
<missing-glyph horiz-adv-x="748" 
d="M68 0v1365h544v-1365h-544zM136 68h408v1229h-408v-1229z" />
    <glyph glyph-name=".notdef" horiz-adv-x="748" 
d="M68 0v1365h544v-1365h-544zM136 68h408v1229h-408v-1229z" />
    <glyph glyph-name=".notdef" horiz-adv-x="748" 
d="M68 0v1365h544v-1365h-544zM136 68h408v1229h-408v-1229z" />
    <glyph glyph-name=".null" horiz-adv-x="0" 
 />
    <glyph glyph-name="uni000D" unicode="&#xd;" horiz-adv-x="618" 
 />
    <glyph glyph-name="space" unicode=" " horiz-adv-x="618" 
 />
    <glyph glyph-name="exclam" unicode="!" horiz-adv-x="674" 
d="M205 92q0 54 38.5 92.5t92.5 38.5q55 0 93 -38t38 -93q0 -54 -38 -92.5t-93 -38.5t-93 38.5t-38 92.5zM223 336v1161h228v-1161h-228z" />
    <glyph glyph-name="quotedbl" unicode="&#x22;" horiz-adv-x="643" 
d="M86 879v557h164v-557h-164zM395 879v557h164v-557h-164z" />
    <glyph glyph-name="numbersign" unicode="#" horiz-adv-x="1575" 
d="M70 428l61 172h297l90 252h-315l61 172h316l155 436h191l-154 -436h250l156 436h190l-154 -436h291l-59 -172h-293l-90 -252h309l-61 -172h-307l-156 -434h-191l156 434h-252l-158 -434h-190l156 434h-299zM618 598h256l91 254h-256z" />
    <glyph glyph-name="dollar" unicode="$" horiz-adv-x="1237" 
d="M137 317l189 84q24 -86 84 -133.5t157 -58.5v457q-205 84 -298 184.5t-93 236.5q0 159 104 262t287 126v112h105v-114q143 -13 235 -71t131 -161l-184 -92q-34 53 -78 83.5t-104 41.5v-402q245 -115 329 -209t84 -233q0 -181 -107.5 -292.5t-305.5 -135.5v-170h-105v166
q-178 12 -286 92t-144 227zM428 1102q0 -62 33 -108t106 -85v359q-73 -22 -106 -61.5t-33 -104.5zM672 215q82 21 125 72.5t43 128.5q0 66 -40 115t-128 92v-408z" />
    <glyph glyph-name="percent" unicode="%" horiz-adv-x="1622" 
d="M57 1094q0 181 87 283t241 102q155 0 240.5 -100.5t85.5 -284.5q0 -183 -86 -284t-240 -101q-155 0 -241.5 101t-86.5 284zM238 1092q0 -129 37.5 -198t107.5 -69q74 0 110.5 67t36.5 202q0 130 -37 199t-106 69q-74 0 -111.5 -68.5t-37.5 -201.5zM317 -39l854 1518h138
l-854 -1518h-138zM913 348q0 182 87 283.5t241 101.5q155 0 240.5 -100.5t85.5 -284.5q0 -182 -87 -284.5t-241 -102.5t-240 102t-86 285zM1092 346q0 -128 37.5 -197t107.5 -69q75 0 112 67t37 201q0 129 -37.5 197.5t-107.5 68.5q-74 0 -111.5 -67.5t-37.5 -200.5z" />
    <glyph glyph-name="ampersand" unicode="&#x26;" horiz-adv-x="1374" 
d="M61 383q0 125 78 230.5t248 211.5l-59 64q-49 53 -75 116t-26 128q0 144 105.5 236.5t271.5 92.5q165 0 262 -83.5t97 -225.5q0 -107 -68 -195.5t-217 -175.5l305 -354q44 44 90 100t98 129l140 -149q-40 -64 -89 -121.5t-106 -107.5l246 -279h-275l-118 139
q-104 -89 -213.5 -131.5t-239.5 -42.5q-202 0 -328.5 117t-126.5 301zM289 389q0 -97 68 -164t169 -67q75 0 151.5 34t156.5 103l-320 369l-37 -25q-105 -68 -146.5 -124.5t-41.5 -125.5zM451 1137q0 -31 11.5 -60t35.5 -55l73 -88l54 31q56 33 84 76.5t28 97.5
q0 62 -38 101.5t-99 39.5q-67 0 -108 -40t-41 -103z" />
    <glyph glyph-name="quotesingle" unicode="'" horiz-adv-x="334" 
d="M86 879v557h164v-557h-164z" />
    <glyph glyph-name="parenleft" unicode="(" horiz-adv-x="621" 
d="M168 539q0 287 59 533t179 460l163 -49q-107 -212 -159 -442.5t-52 -499.5q0 -282 51.5 -510t159.5 -424l-163 -53q-119 220 -178.5 466t-59.5 519z" />
    <glyph glyph-name="parenright" unicode=")" horiz-adv-x="621" 
d="M45 -393q108 196 159.5 424t51.5 510q0 269 -51.5 499.5t-159.5 442.5l162 49q120 -214 178.5 -460t58.5 -533q0 -273 -59 -519t-178 -466z" />
    <glyph glyph-name="asterisk" unicode="*" horiz-adv-x="901" 
d="M106 989l226 115l-226 133l72 123l211 -135l-12 239h145l-14 -241l215 137l72 -123l-232 -127l232 -121l-76 -121l-211 140l14 -246h-145l10 244l-209 -138z" />
    <glyph glyph-name="plus" unicode="+" horiz-adv-x="1706" 
d="M254 528v166h514v527h170v-527h514v-166h-514v-528h-170v528h-514z" />
    <glyph glyph-name="comma" unicode="," horiz-adv-x="618" 
d="M115 -309l194 557l195 -72l-260 -536z" />
    <glyph glyph-name="hyphen" unicode="-" horiz-adv-x="829" 
d="M147 371v200h535v-200h-535z" />
    <glyph glyph-name="period" unicode="." horiz-adv-x="618" 
d="M178 111q0 55 38 94t93 39t93 -39t38 -94q0 -54 -38 -91.5t-93 -37.5t-93 37.5t-38 91.5z" />
    <glyph glyph-name="slash" unicode="/" horiz-adv-x="887" 
d="M0 -190l717 1687h170l-717 -1687h-170z" />
    <glyph glyph-name="zero" unicode="0" horiz-adv-x="1237" 
d="M92 721q0 358 140 558t389 200q252 0 388 -200.5t136 -573.5q0 -349 -140.5 -546.5t-386.5 -197.5q-249 0 -387.5 199.5t-138.5 560.5zM330 719q0 -267 73.5 -410t210.5 -143q146 0 219.5 139.5t73.5 417.5q0 270 -72.5 411.5t-211.5 141.5q-145 0 -219 -141t-74 -416z
" />
    <glyph glyph-name="one" unicode="1" horiz-adv-x="1237" 
d="M238 1262l92 188h428v-1450h-217v1262h-303z" />
    <glyph glyph-name="two" unicode="2" horiz-adv-x="1237" 
d="M43 0l547 655q102 123 149 216t47 169q0 109 -64.5 171.5t-176.5 62.5q-100 0 -165 -62.5t-73 -164.5h-229q0 197 132 314.5t355 117.5q212 0 334.5 -109t122.5 -297q0 -134 -70.5 -270.5t-298.5 -396.5l-186 -216h557v-190h-981z" />
    <glyph glyph-name="three" unicode="3" horiz-adv-x="1237" 
d="M94 391h228v-12q0 -101 69 -161t187 -60q133 0 205.5 66.5t72.5 191.5q0 131 -74.5 197.5t-222.5 66.5q-7 0 -22 -1t-23 -1v192q7 0 21.5 -1t21.5 -1q130 0 196 54.5t66 160.5q0 94 -59.5 149.5t-159.5 55.5q-107 0 -167.5 -51.5t-63.5 -144.5h-215q10 187 127 287
t325 100q201 0 318.5 -105t117.5 -284q0 -135 -66.5 -221.5t-184.5 -104.5q139 -25 211.5 -122t72.5 -257q0 -195 -136.5 -309.5t-369.5 -114.5q-211 0 -340 116.5t-135 313.5z" />
    <glyph glyph-name="four" unicode="4" horiz-adv-x="1237" 
d="M27 297l852 1182h67v-1016h178v-166h-178v-297h-217v297h-702zM362 463h367v381q0 30 1.5 67t4.5 78z" />
    <glyph glyph-name="five" unicode="5" horiz-adv-x="1237" 
d="M78 176l158 174q51 -94 131 -144t178 -50q145 0 235 92.5t90 243.5q0 145 -94.5 236t-247.5 91q-92 0 -170.5 -31.5t-138.5 -93.5l-59 13l182 743h692v-193h-549l-86 -323q60 25 116 37t112 12q209 0 340 -134t131 -349q0 -246 -153 -392.5t-410 -146.5q-152 0 -264 52.5
t-193 162.5z" />
    <glyph glyph-name="six" unicode="6" horiz-adv-x="1237" 
d="M113 451q0 235 320 685l26 35l256 363l182 -92l-424 -553q49 23 96.5 35t94.5 12q196 0 323 -133t127 -340q0 -226 -142.5 -364t-375.5 -138q-218 0 -350.5 135t-132.5 355zM340 449q0 -131 73 -211t189 -80q131 0 206 78t75 213q0 137 -74 214.5t-205 77.5
q-117 0 -190.5 -81t-73.5 -211z" />
    <glyph glyph-name="seven" unicode="7" horiz-adv-x="1237" 
d="M150 1262v188h1009l-737 -1505l-193 86l598 1231h-677z" />
    <glyph glyph-name="eight" unicode="8" horiz-adv-x="1237" 
d="M115 389q0 144 68 244.5t192 140.5q-109 47 -160 123t-51 190q0 176 124 284t328 108q209 0 332 -109.5t123 -292.5q0 -108 -53.5 -185.5t-157.5 -117.5q122 -40 191 -141.5t69 -239.5q0 -202 -133.5 -317t-370.5 -115q-233 0 -367 115t-134 313zM344 410
q0 -119 72 -186.5t200 -67.5q129 0 202 67.5t73 186.5q0 120 -73 188t-202 68q-126 0 -199 -69t-73 -187zM397 1083q0 -92 58.5 -144t160.5 -52q105 0 163.5 51.5t58.5 144.5q0 95 -58 149t-159 54q-104 0 -164 -54.5t-60 -148.5z" />
    <glyph glyph-name="nine" unicode="9" horiz-adv-x="1237" 
d="M104 977q0 226 142.5 364t376.5 138q218 0 351.5 -134.5t133.5 -353.5q0 -235 -321 -685l-25 -36l-258 -362l-180 92l421 551q-46 -23 -93.5 -34t-96.5 -11q-197 0 -324 132t-127 339zM336 993q0 -138 74 -216.5t204 -78.5q117 0 191 82.5t74 212.5q0 131 -72 211
t-189 80q-131 0 -206.5 -78t-75.5 -213z" />
    <glyph glyph-name="colon" unicode=":" horiz-adv-x="674" 
d="M205 111q0 53 38.5 92t92.5 39q55 0 93 -38t38 -93q0 -54 -38 -91.5t-93 -37.5t-93 37.5t-38 91.5zM205 795q0 53 38.5 91t92.5 38q55 0 93 -37t38 -92t-38 -93t-93 -38t-93 38t-38 93z" />
    <glyph glyph-name="semicolon" unicode=";" horiz-adv-x="674" 
d="M119 -309l196 557l195 -72l-260 -536zM293 795q0 53 37.5 91t91.5 38q56 0 93.5 -37t37.5 -92t-38 -93t-93 -38q-54 0 -91.5 38t-37.5 93z" />
    <glyph glyph-name="less" unicode="&#x3c;" horiz-adv-x="1706" 
d="M264 530v160l1178 486v-185l-934 -381l934 -381v-182z" />
    <glyph glyph-name="equal" unicode="=" horiz-adv-x="1706" 
d="M254 322v165h1198v-165h-1198zM254 733v168h1198v-168h-1198z" />
    <glyph glyph-name="greater" unicode="&#x3e;" horiz-adv-x="1706" 
d="M264 47v182l934 381l-934 381v185l1178 -486v-160z" />
    <glyph glyph-name="question" unicode="?" horiz-adv-x="1114" 
d="M207 1153q0 157 95.5 251.5t254.5 94.5q163 0 259.5 -93.5t96.5 -250.5q0 -115 -56.5 -188.5t-223.5 -155.5l-24 -12q-197 -98 -197 -185q0 -50 39 -87.5t94 -37.5q67 0 103 40t38 116h178v-20q0 -148 -83 -229t-236 -81q-142 0 -234 83.5t-92 211.5q0 118 63.5 196
t247.5 167q125 59 160 97.5t35 92.5q0 67 -47.5 110.5t-120.5 43.5q-82 0 -129 -53.5t-47 -147.5h-172q0 6 -1 18.5t-1 18.5zM397 92q0 54 39 92.5t92 38.5q56 0 93.5 -38t37.5 -93q0 -54 -38 -92.5t-93 -38.5q-54 0 -92.5 38.5t-38.5 92.5z" />
    <glyph glyph-name="at" unicode="@" horiz-adv-x="2048" 
d="M98 522q0 165 52 313.5t153 272.5q147 179 353.5 272t459.5 93q166 0 315 -45.5t255 -127.5q132 -102 198 -235.5t66 -300.5q0 -162 -65 -302t-185 -237q-69 -55 -150 -83.5t-168 -28.5q-106 0 -157 40.5t-51 125.5v4q-55 -87 -128 -127.5t-176 -40.5q-152 0 -232.5 86.5
t-80.5 249.5q0 233 138 395t333 162q89 0 149 -34.5t99 -107.5l55 107h154l-148 -586q-1 -5 -2 -12q-6 -28 -6 -37q0 -38 26.5 -61t69.5 -23q51 0 107.5 30.5t105.5 84.5q72 76 110 177.5t38 215.5q0 253 -187 411t-489 158q-138 0 -256 -31t-215 -94q-181 -113 -279 -291
t-98 -395q0 -312 209.5 -499t558.5 -187q166 0 323.5 49t291.5 142l67 -99q-149 -113 -318.5 -170t-355.5 -57q-192 0 -351 48t-281 142q-155 118 -231.5 275.5t-76.5 357.5zM741 444q0 -98 45.5 -151t128.5 -53q90 0 163.5 66.5t99.5 172.5l55 228q-14 84 -61.5 130
t-122.5 46q-127 0 -217.5 -128.5t-90.5 -310.5z" />
    <glyph glyph-name="A" unicode="A" horiz-adv-x="1356" 
d="M-31 0l709 1522l708 -1522h-251l-166 377h-580l-170 -377h-250zM477 575h408l-150 334q-13 32 -27 73.5t-28 92.5q-12 -48 -25.5 -89.5t-27.5 -76.5z" />
    <glyph glyph-name="B" unicode="B" horiz-adv-x="1180" 
d="M168 0v1464h369q158 0 233.5 -17t128.5 -56q68 -50 105.5 -131t37.5 -179q0 -117 -54 -195.5t-157 -109.5q128 -20 201.5 -116.5t73.5 -243.5q0 -89 -31 -169t-88 -136q-60 -61 -149 -86t-299 -25h-371zM401 199h82q125 0 187 10t98 35q44 29 68 78t24 108q0 70 -29 122
t-83 81q-34 17 -77.5 25t-115.5 8h-72h-82v-467zM401 846h91q170 0 240.5 46.5t70.5 156.5q0 120 -65 168.5t-246 48.5h-91v-420z" />
    <glyph glyph-name="C" unicode="C" horiz-adv-x="1470" 
d="M104 729q0 161 57.5 302.5t166.5 248.5q109 108 250 163.5t305 55.5q129 0 246 -37.5t227 -113.5l-13 -240q-101 86 -213.5 129t-236.5 43q-240 0 -390.5 -154t-150.5 -399q0 -237 146.5 -391t369.5 -154q130 0 247.5 46t225.5 139v-269q-96 -69 -209 -103t-245 -34
q-168 0 -310.5 55t-250.5 162q-107 105 -164.5 247.5t-57.5 303.5z" />
    <glyph glyph-name="D" unicode="D" horiz-adv-x="1516" 
d="M168 0v1464h321q313 0 440.5 -31.5t223.5 -105.5q127 -97 192.5 -249t65.5 -347t-65.5 -345.5t-192.5 -248.5q-96 -74 -218.5 -105.5t-381.5 -31.5h-64h-321zM406 215h200q165 0 247.5 22t143.5 74q83 71 124.5 176.5t41.5 245.5t-41.5 245.5t-124.5 176.5
q-62 52 -148.5 74t-270.5 22h-86h-86v-1036z" />
    <glyph glyph-name="E" unicode="E" horiz-adv-x="1090" 
d="M168 0v1464h817v-202h-579v-367h579v-209h-579v-473h579v-213h-817z" />
    <glyph glyph-name="F" unicode="F" horiz-adv-x="1075" 
d="M168 0v1464h817v-202h-579v-365h579v-209h-579v-688h-238z" />
    <glyph glyph-name="G" unicode="G" horiz-adv-x="1645" 
d="M104 729q0 166 56.5 306t167.5 247q107 105 251 160t308 55q173 0 309.5 -63t243.5 -193l-174 -131q-74 86 -167 128t-208 42q-238 0 -388.5 -152.5t-150.5 -396.5q0 -248 150.5 -402.5t390.5 -154.5q204 0 321 95t117 259v21h-352v201h580q0 -15 1 -42q3 -71 3 -96
q0 -309 -177 -480t-499 -171q-180 0 -321 53t-247 160q-104 106 -159.5 249t-55.5 306z" />
    <glyph glyph-name="H" unicode="H" horiz-adv-x="1532" 
d="M168 0v1464h238v-540h720v540h238v-1464h-238v711h-720v-711h-238z" />
    <glyph glyph-name="I" unicode="I" horiz-adv-x="584" 
d="M172 0v1464h238v-1464h-238z" />
    <glyph glyph-name="J" unicode="J" horiz-adv-x="807" 
d="M4 113l152 153q37 -44 71 -64t72 -20q70 0 98.5 46t28.5 171v1065h236v-1142q0 -186 -82 -273.5t-256 -87.5q-96 0 -173.5 37t-146.5 115z" />
    <glyph glyph-name="K" unicode="K" horiz-adv-x="1270" 
d="M168 0v1464h238v-606l526 606h291l-580 -651l649 -813h-307l-579 748v-748h-238z" />
    <glyph glyph-name="L" unicode="L" horiz-adv-x="963" 
d="M168 0v1464h238v-1251h532v-213h-770z" />
    <glyph glyph-name="M" unicode="M" horiz-adv-x="1767" 
d="M27 0l346 1526l432 -924q10 -22 31 -73l49 -126q21 63 66 160l18 40l422 923l354 -1526h-221l-162 723q-4 17 -13 94q-8 64 -14 106q-9 -50 -25.5 -100t-41.5 -102l-383 -780l-383 796q-24 49 -41.5 95t-30.5 91q-1 -46 -7.5 -96.5t-19.5 -105.5l-157 -721h-219z" />
    <glyph glyph-name="N" unicode="N" horiz-adv-x="1645" 
d="M168 0v1522l930 -895l77 -81q39 -43 82 -97v1015h220v-1521l-949 911q-38 37 -73.5 78t-67.5 86v-1018h-219z" />
    <glyph glyph-name="O" unicode="O" horiz-adv-x="1774" 
d="M104 729q0 157 58 296t170 249q112 109 254 166t301 57q158 0 299.5 -57t253.5 -166q112 -111 170.5 -250.5t58.5 -294.5q0 -156 -58.5 -295t-170.5 -248q-113 -109 -255 -167t-298 -58q-158 0 -301.5 58.5t-253.5 166.5q-112 109 -170 247t-58 296zM352 729
q0 -111 40 -210t116 -177t173 -119t206 -41q107 0 203.5 41t173.5 119q76 78 116.5 177.5t40.5 209.5q0 111 -40.5 211t-116.5 178q-74 77 -171.5 118.5t-205.5 41.5t-205.5 -41t-173.5 -119q-76 -77 -116 -177t-40 -212z" />
    <glyph glyph-name="P" unicode="P" horiz-adv-x="1090" 
d="M168 0v1464h360q160 0 235.5 -17.5t131.5 -57.5q69 -51 108 -137.5t39 -190.5t-39 -192t-108 -138q-56 -40 -131.5 -57t-235.5 -17h-47h-90v-657h-223zM406 852h61q198 0 264 43t66 152q0 117 -70.5 165t-259.5 48h-61v-408z" />
    <glyph glyph-name="Q" unicode="Q" horiz-adv-x="1774" 
d="M104 731q0 157 58.5 296t169.5 247q110 108 252.5 165.5t302.5 57.5q159 0 301 -57.5t252 -165.5q111 -109 170 -248t59 -295q0 -152 -56.5 -288.5t-164.5 -243.5l311 -336h-284l-191 207q-98 -53 -199 -79t-211 -26q-149 0 -292 59t-250 164q-111 108 -169.5 247
t-58.5 296zM352 731q0 -230 155.5 -387.5t385.5 -157.5q62 0 118.5 13.5t112.5 42.5l-262 282h289l141 -151q67 81 98 168.5t31 189.5q0 112 -39.5 211t-115.5 176q-77 78 -175 120t-204 42q-107 0 -205 -42t-174 -120q-76 -77 -116 -176t-40 -211z" />
    <glyph glyph-name="R" unicode="R" horiz-adv-x="1147" 
d="M168 0v1464h332q146 0 226.5 -19t137.5 -63q68 -53 105 -137t37 -184q0 -176 -85 -275.5t-251 -119.5l504 -666h-269l-487 655h-27v-655h-223zM406 840h43q189 0 251 44t62 156q0 121 -66.5 170.5t-246.5 49.5h-43v-420z" />
    <glyph glyph-name="S" unicode="S" horiz-adv-x="1124" 
d="M84 293l190 88q27 -98 99 -149.5t184 -51.5q106 0 168.5 59t62.5 158q0 129 -214 230q-30 15 -46 22q-242 118 -322.5 213.5t-80.5 233.5q0 179 121.5 290t318.5 111q162 0 271 -62.5t151 -179.5l-186 -96q-44 69 -96.5 101t-120.5 32q-96 0 -152.5 -50t-56.5 -134
q0 -132 248 -246l30 -14q217 -100 298 -195.5t81 -238.5q0 -208 -131 -330.5t-354 -122.5q-187 0 -306.5 86t-156.5 246z" />
    <glyph glyph-name="T" unicode="T" horiz-adv-x="1042" 
d="M14 1262v202h1014v-202h-387v-1262h-238v1262h-389z" />
    <glyph glyph-name="U" unicode="U" horiz-adv-x="1524" 
d="M162 553v911h235v-889q0 -198 91.5 -297.5t273.5 -99.5q181 0 272.5 99.5t91.5 297.5v889h238v-911q0 -297 -150 -444.5t-452 -147.5t-451 147t-149 445z" />
    <glyph glyph-name="V" unicode="V" horiz-adv-x="1266" 
d="M-20 1464h247l328 -780q29 -68 48 -125.5t30 -109.5q13 55 33 114t47 121l327 780h246l-653 -1521z" />
    <glyph glyph-name="W" unicode="W" horiz-adv-x="1923" 
d="M-6 1464h235l277 -739q27 -73 45.5 -128t32.5 -103q35 116 73 227q5 14 7 19l294 782l310 -797q22 -58 41.5 -116t36.5 -117q10 45 27 99t44 128l275 745h237l-567 -1521l-334 835q-22 56 -40 107.5t-32 97.5q-17 -59 -34 -110.5t-35 -98.5l-328 -831z" />
    <glyph glyph-name="X" unicode="X" horiz-adv-x="1171" 
d="M0 0l475 766l-420 698h250l211 -358q17 -28 63 -116q10 -20 15 -29l35 66l45 77l223 360h244l-428 -694l461 -770h-263l-245 415q-1 2 -4 7l-74 141l-37 -71q-20 -36 -43 -74l-256 -418h-252z" />
    <glyph glyph-name="Y" unicode="Y" horiz-adv-x="1214" 
d="M-10 1464h250l307 -497l28 -50q16 -31 33 -67q14 35 29.5 66t32.5 57l315 491h238l-504 -794v-670h-236v670z" />
    <glyph glyph-name="Z" unicode="Z" horiz-adv-x="1180" 
d="M18 0l746 1262h-621v202h987l-739 -1251h748v-213h-1121z" />
    <glyph glyph-name="bracketleft" unicode="[" horiz-adv-x="621" 
d="M199 -414v1911h381v-156h-191v-1597h191v-158h-381z" />
    <glyph glyph-name="backslash" unicode="\" horiz-adv-x="887" 
d="M0 1497h170l717 -1687h-170z" />
    <glyph glyph-name="bracketright" unicode="]" horiz-adv-x="621" 
d="M43 -256h188v1597h-188v156h379v-1911h-379v158z" />
    <glyph glyph-name="asciicircum" unicode="^" horiz-adv-x="2048" 
d="M418 899l497 561h218l495 -561h-207l-397 397l-399 -397h-207z" />
    <glyph glyph-name="underscore" unicode="_" horiz-adv-x="1024" 
d="M0 -311h1024v-172h-1024v172z" />
    <glyph glyph-name="grave" unicode="`" horiz-adv-x="1024" 
d="M238 1364h225l190 -272h-123z" />
    <glyph glyph-name="a" unicode="a" horiz-adv-x="1192" 
d="M80 475q0 227 118 366.5t308 139.5q116 0 198.5 -48.5t120.5 -139.5v155h217v-948h-217v123q-58 -82 -135.5 -122t-177.5 -40q-201 0 -316.5 137.5t-115.5 376.5zM307 469q0 -151 68 -233t192 -82q117 0 190.5 89t73.5 234q0 147 -68.5 229t-191.5 82t-193.5 -84.5
t-70.5 -234.5z" />
    <glyph glyph-name="b" unicode="b" horiz-adv-x="1192" 
d="M150 0v1550h217v-757q38 90 121.5 139t199.5 49q189 0 306.5 -139.5t117.5 -366.5q0 -239 -115.5 -376.5t-316.5 -137.5q-100 0 -177.5 40t-135.5 122v-123h-217zM360 477q0 -145 74.5 -234t192.5 -89q123 0 190.5 82t67.5 233q0 150 -70.5 234.5t-193.5 84.5t-192 -82
t-69 -229z" />
    <glyph glyph-name="c" unicode="c" horiz-adv-x="930" 
d="M80 471q0 229 145.5 369.5t380.5 140.5q74 0 136 -14.5t116 -44.5v-244q-50 55 -116.5 84t-143.5 29q-133 0 -213 -86t-80 -228q0 -148 80.5 -232.5t222.5 -84.5q79 0 141 29.5t109 89.5v-250q-60 -34 -128.5 -51t-145.5 -17q-223 0 -363.5 142t-140.5 368z" />
    <glyph glyph-name="d" unicode="d" horiz-adv-x="1192" 
d="M80 475q0 227 118 366.5t308 139.5q116 0 198.5 -48.5t120.5 -139.5v757h217v-1550h-217v123q-58 -82 -135.5 -122t-177.5 -40q-201 0 -316.5 137.5t-115.5 376.5zM307 469q0 -151 68 -233t192 -82q118 0 191 88.5t73 234.5q0 147 -68.5 229t-191.5 82t-193.5 -84.5
t-70.5 -234.5z" />
    <glyph glyph-name="e" unicode="e" horiz-adv-x="1139" 
d="M80 471q0 223 139.5 366.5t358.5 143.5q229 0 357 -131t128 -367v-41h-758q8 -133 79 -207.5t189 -74.5q105 0 175 44t122 142l183 -102q-80 -143 -198 -213t-277 -70q-228 0 -363 139t-135 371zM319 588h519q-13 102 -78 155.5t-178 53.5q-107 0 -172 -52t-91 -157z" />
    <glyph glyph-name="f" unicode="f" horiz-adv-x="627" 
d="M14 758v190h166v254q0 189 78.5 279t243.5 90q35 0 72 -5t75 -16v-196q-26 15 -52.5 22.5t-53.5 7.5q-78 0 -112 -48t-34 -162v-226h228v-190h-228v-758h-217v758h-166z" />
    <glyph glyph-name="g" unicode="g" horiz-adv-x="1192" 
d="M80 475q0 227 118 366.5t308 139.5q116 0 198.5 -48.5t120.5 -139.5v155h217v-889q0 -278 -111 -391.5t-374 -113.5q-196 0 -313 82.5t-119 219.5l233 1q5 -61 57 -93t146 -32q139 0 200 61t62 204l2 126q-58 -82 -135.5 -122t-177.5 -40q-201 0 -316.5 137.5
t-115.5 376.5zM307 469q0 -151 68 -233t192 -82q117 0 190.5 89t73.5 234q0 147 -68.5 229t-191.5 82t-193.5 -84.5t-70.5 -234.5z" />
    <glyph glyph-name="h" unicode="h" 
d="M150 0v1550h204v-757q65 98 153 143t214 45q106 0 180.5 -33.5t116.5 -99.5q25 -39 36 -91t11 -182v-575h-219v487q0 187 -45.5 248.5t-161.5 61.5q-76 0 -135.5 -28t-93.5 -79q-24 -34 -33.5 -87.5t-9.5 -170.5v-432h-217z" />
    <glyph glyph-name="i" unicode="i" horiz-adv-x="537" 
d="M131 1358q0 55 40.5 95t96.5 40q58 0 96.5 -38.5t38.5 -96.5t-39 -97.5t-96 -39.5q-56 0 -96.5 40.5t-40.5 96.5zM160 0v948h217v-948h-217z" />
    <glyph glyph-name="j" unicode="j" horiz-adv-x="537" 
d="M131 1358q0 55 40.5 95t96.5 40q58 0 96.5 -38.5t38.5 -96.5t-39 -97.5t-96 -39.5q-56 0 -96.5 40.5t-40.5 96.5zM160 -446v1394h217v-1394h-217z" />
    <glyph glyph-name="k" unicode="k" horiz-adv-x="1057" 
d="M150 0v1550h217v-995l397 393h268l-430 -418l471 -530h-280l-426 489v-489h-217z" />
    <glyph glyph-name="l" unicode="l" horiz-adv-x="537" 
d="M160 0v1550h217v-1550h-217z" />
    <glyph glyph-name="m" unicode="m" horiz-adv-x="1792" 
d="M150 0v948h204v-155q65 99 147.5 144.5t194.5 45.5q111 0 184 -46.5t111 -141.5q75 98 159.5 143t192.5 45q94 0 164 -34.5t109 -100.5q18 -31 26.5 -74t8.5 -123v-76v-575h-217v487q0 191 -40.5 251.5t-144.5 60.5q-128 0 -182.5 -81.5t-54.5 -285.5v-432h-219v487
q0 176 -42.5 244t-146.5 68q-64 0 -117 -29t-84 -80q-20 -33 -28 -81t-8 -177v-432h-217z" />
    <glyph glyph-name="n" unicode="n" 
d="M150 0v948h204v-155q65 98 153 143t214 45q106 0 180.5 -33.5t116.5 -99.5q25 -39 36 -91t11 -182v-575h-219v487q0 187 -45.5 248.5t-161.5 61.5q-76 0 -135.5 -28t-93.5 -79q-24 -34 -33.5 -87.5t-9.5 -170.5v-432h-217z" />
    <glyph glyph-name="o" unicode="o" 
d="M80 473q0 104 39.5 196.5t113.5 164.5q73 71 168 109t199 38q107 0 201.5 -38t169.5 -112q75 -73 114 -165t39 -193q0 -105 -38.5 -197t-112.5 -163q-78 -75 -173 -113.5t-200 -38.5q-103 0 -198 38.5t-169 111.5q-75 74 -114 166t-39 196zM309 471q0 -132 85.5 -223.5
t207.5 -91.5t207.5 91.5t85.5 223.5t-85 223.5t-208 91.5q-122 0 -207.5 -91.5t-85.5 -223.5z" />
    <glyph glyph-name="p" unicode="p" horiz-adv-x="1192" 
d="M150 -446v1394h217v-155q38 90 121.5 139t199.5 49q189 0 306.5 -139.5t117.5 -366.5q0 -239 -115.5 -376.5t-316.5 -137.5q-100 0 -177.5 40t-135.5 122v-569h-217zM360 477q0 -147 73.5 -235t193.5 -88q123 0 190.5 82t67.5 233q0 150 -70.5 234.5t-193.5 84.5
t-192 -82t-69 -229z" />
    <glyph glyph-name="q" unicode="q" horiz-adv-x="1192" 
d="M80 475q0 227 118 366.5t308 139.5q116 0 198.5 -48.5t120.5 -139.5v155h217v-1394h-217v569q-58 -82 -135.5 -122t-177.5 -40q-201 0 -316.5 137.5t-115.5 376.5zM307 469q0 -151 68 -233t192 -82q119 0 191.5 88t72.5 235t-68.5 229t-191.5 82t-193.5 -84.5
t-70.5 -234.5z" />
    <glyph glyph-name="r" unicode="r" horiz-adv-x="754" 
d="M150 0v950h217v-153q35 94 92.5 139t142.5 45q46 0 90.5 -11t87.5 -32l-78 -184q-28 20 -60.5 29.5t-72.5 9.5q-108 0 -155 -86.5t-47 -290.5v-416h-217z" />
    <glyph glyph-name="s" unicode="s" horiz-adv-x="872" 
d="M41 172l180 98q20 -71 74 -108t139 -37q73 0 114.5 33.5t41.5 91.5q0 77 -148 132q-50 18 -77 30q-152 63 -212.5 128t-60.5 158q0 127 99.5 206t263.5 79q110 0 188.5 -40.5t114.5 -115.5l-154 -106q-17 45 -59.5 71.5t-98.5 26.5q-62 0 -99.5 -29.5t-37.5 -78.5
q0 -74 168 -135q53 -19 82 -31q131 -52 187.5 -117.5t56.5 -163.5q0 -142 -103 -222.5t-284 -80.5q-139 0 -231 52t-144 159z" />
    <glyph glyph-name="t" unicode="t" horiz-adv-x="621" 
d="M35 758v190h166v359h217v-359h166v-190h-166v-758h-217v758h-166z" />
    <glyph glyph-name="u" unicode="u" 
d="M143 479v469h217v-534q0 -138 57 -198t185 -60t185 60t57 198v534h217v-469q0 -272 -109 -395t-348 -123q-243 0 -352 122t-109 396z" />
    <glyph glyph-name="v" unicode="v" horiz-adv-x="967" 
d="M-14 948h237l207 -477q10 -22 24 -66t29 -105q10 43 23.5 85.5t32.5 85.5l206 477h236l-498 -1005z" />
    <glyph glyph-name="w" unicode="w" horiz-adv-x="1536" 
d="M-14 948h231l213 -457q13 -29 25.5 -79.5t21.5 -111.5q1 36 12 75t37 96l232 512h18l236 -512q22 -48 32.5 -89t12.5 -82q9 54 23 102t32 87l209 459h229l-493 -1005l-219 493q-25 57 -41 101.5t-29 87.5l-39 -111q-17 -47 -27 -70l-225 -501z" />
    <glyph glyph-name="x" unicode="x" horiz-adv-x="928" 
d="M-25 0l359 510l-307 438h239l133 -196q21 -30 37 -58t29 -57q12 24 27 51l40 66l132 194h237l-307 -440l356 -508h-237l-176 249q-3 5 -8 12q-51 77 -66 118l-39 -70q-18 -33 -37 -61l-172 -248h-240z" />
    <glyph glyph-name="y" unicode="y" horiz-adv-x="965" 
d="M2 948h240l174 -491q15 -45 26.5 -91.5t18.5 -94.5q13 50 62 159l5 12l234 506h235l-684 -1394h-223l260 528z" />
    <glyph glyph-name="z" unicode="z" horiz-adv-x="920" 
d="M-2 0l528 758h-475v190h828l-517 -758h517v-190h-881z" />
    <glyph glyph-name="braceleft" unicode="{" horiz-adv-x="1024" 
d="M162 442v179q7 0 21.5 -1.5t21.5 -1.5q126 0 178.5 59t52.5 202v247q0 145 23 206.5t80 94.5q44 27 109 38.5t181 11.5h45v-179q-8 0 -24 1t-23 1q-109 0 -147.5 -41.5t-38.5 -173.5v-241q0 -155 -44 -220.5t-159 -93.5q114 -27 158.5 -92.5t44.5 -220.5v-240
q0 -132 39.5 -174.5t148.5 -42.5q7 0 22 1t23 1v-176h-63q-102 0 -165.5 12t-106.5 37q-57 34 -80 96t-23 203v248q0 144 -52.5 203t-178.5 59q-7 0 -21.5 -1t-21.5 -1z" />
    <glyph glyph-name="bar" unicode="|" horiz-adv-x="1024" 
d="M424 -483v2048h178v-2048h-178z" />
    <glyph glyph-name="braceright" unicode="}" horiz-adv-x="1024" 
d="M152 -238q8 0 23 -1t22 -1q109 0 147.5 42t38.5 175v240q0 153 45 219t160 94q-115 28 -160 93.5t-45 220.5v241q0 132 -38 173.5t-146 41.5q-7 0 -23 -1t-24 -1v179h45q115 0 179.5 -11.5t108.5 -38.5q57 -33 80 -95t23 -206v-247q0 -144 52 -202.5t179 -58.5
q6 0 21 1.5t22 1.5v-179q-7 0 -21.5 1t-21.5 1q-126 0 -178.5 -59t-52.5 -203v-248q0 -143 -23 -204t-80 -95q-43 -26 -108 -37.5t-180 -11.5h-45v176z" />
    <glyph glyph-name="asciitilde" unicode="~" horiz-adv-x="1706" 
d="M178 434v187q106 72 202 107.5t185 35.5q62 0 125.5 -12t168.5 -48q13 -4 42 -15q164 -58 250 -58q85 0 177 37t202 116v-184q-103 -71 -197.5 -106t-183.5 -35q-44 0 -92.5 8.5t-98.5 26.5q-25 8 -76 26q-212 74 -319 74q-82 0 -174 -38t-211 -122z" />
    <glyph glyph-name="uni00A0" unicode="&#xa0;" horiz-adv-x="1237" 
 />
    <glyph glyph-name="exclamdown" unicode="&#xa1;" horiz-adv-x="674" 
d="M205 1368q0 54 38 91.5t93 37.5t93 -37.5t38 -91.5q0 -55 -38 -93t-93 -38q-54 0 -92.5 38.5t-38.5 92.5zM223 -39v1163h228v-1163h-228z" />
    <glyph glyph-name="cent" unicode="&#xa2;" horiz-adv-x="1237" 
d="M186 735q0 196 116.5 325.5t320.5 160.5v161h104v-157q65 -2 130.5 -16.5t135.5 -43.5v-204q-57 36 -121.5 56.5t-144.5 26.5v-598q94 15 158 38.5t108 58.5v-209q-57 -33 -123 -51t-143 -21v-203h-104v207q-195 15 -316 145t-121 324zM383 750q0 -123 63.5 -203
t176.5 -101v596q-107 -18 -173.5 -99.5t-66.5 -192.5z" />
    <glyph glyph-name="sterling" unicode="&#xa3;" horiz-adv-x="1237" 
d="M74 49q59 89 123.5 134.5t138.5 52.5q24 48 35.5 91.5t11.5 86.5q0 41 -11.5 83t-35.5 89h-250v141h188q-44 74 -67 149t-23 150q0 200 138 326.5t360 126.5q210 0 331.5 -114t139.5 -329l-223 -30q-10 138 -75.5 209t-182.5 71q-112 0 -182 -69.5t-70 -180.5
q0 -78 74 -269l16 -40h358v-141h-313q8 -26 12 -53t4 -56q0 -66 -25 -129t-71 -112h6q82 0 209 -45.5t178 -45.5q70 0 124 28t83 79l133 -119q-47 -85 -124.5 -130.5t-174.5 -45.5q-95 0 -256 48t-229 48q-56 0 -111 -26t-108 -78z" />
    <glyph glyph-name="currency" unicode="&#xa4;" horiz-adv-x="1241" 
d="M76 432l203 205q-40 53 -60 115.5t-20 132.5q0 69 20 131.5t60 116.5l-203 204l92 93l203 -203q55 41 117 61.5t133 20.5t134 -20.5t117 -61.5l203 203l94 -93l-204 -204q39 -54 59 -116.5t20 -131.5q0 -70 -20 -132.5t-59 -115.5l204 -205l-94 -92l-203 205
q-57 -42 -118 -62t-131 -20q-72 0 -135 20.5t-117 61.5l-203 -205zM332 885q0 -120 84.5 -204.5t206.5 -84.5q121 0 205.5 84.5t84.5 204.5q0 119 -85.5 205t-204.5 86q-120 0 -205.5 -86t-85.5 -205z" />
    <glyph glyph-name="yen" unicode="&#xa5;" horiz-adv-x="1237" 
d="M0 1452h240l307 -494q11 -17 27.5 -49.5t33.5 -70.5q13 34 28.5 66t33.5 61l315 487h229l-266 -420h256v-145h-350l-102 -164h452v-145h-493v-578h-219v578h-482v145h445l-101 164h-344v145h256z" />
    <glyph glyph-name="brokenbar" unicode="&#xa6;" horiz-adv-x="1024" 
d="M424 -350v758h178v-758h-178zM424 674v758h178v-758h-178z" />
    <glyph glyph-name="section" unicode="&#xa7;" horiz-adv-x="1090" 
d="M84 539q0 128 68 223.5t194 144.5q-90 42 -135 109.5t-45 161.5q0 149 105 235t290 86q174 0 266.5 -86.5t92.5 -249.5v-20h-187q-3 90 -50 136t-136 46q-79 0 -128.5 -40.5t-49.5 -102.5q0 -57 46.5 -97.5t209.5 -105.5q219 -88 302 -186.5t83 -260.5q0 -138 -69.5 -229
t-205.5 -131q94 -44 145.5 -119.5t51.5 -169.5q0 -154 -105.5 -244t-289.5 -90q-174 0 -278.5 94t-104.5 248v21h202q4 -92 50.5 -137t136.5 -45q87 0 138.5 40.5t51.5 108.5q0 95 -206 181l-42 18q-130 56 -187.5 87.5t-88.5 61.5q-64 61 -94.5 137t-30.5 175zM301 537
q0 -107 73 -181.5t177 -74.5t178 74.5t74 181.5q0 106 -74 182t-178 76t-177 -75t-73 -183z" />
    <glyph glyph-name="dieresis" unicode="&#xa8;" horiz-adv-x="1024" 
d="M209 1255q0 48 36 83.5t85 35.5t84 -34.5t35 -84.5q0 -53 -33.5 -87.5t-85.5 -34.5q-51 0 -86 35t-35 87zM573 1255q0 48 36 83.5t85 35.5t84 -34.5t35 -84.5q0 -53 -33.5 -87.5t-85.5 -34.5q-51 0 -86 35t-35 87z" />
    <glyph glyph-name="copyright" unicode="&#xa9;" horiz-adv-x="1706" 
d="M113 731q0 145 57 280.5t164 243.5q105 107 235.5 161t282.5 54t286 -55t240 -162q105 -105 160 -238.5t55 -283.5q0 -153 -54.5 -286t-158.5 -234q-108 -107 -244.5 -164t-283.5 -57q-146 0 -280 56.5t-240 162.5q-107 106 -163 240.5t-56 281.5zM223 731
q0 -126 48 -240t139 -204q90 -91 204.5 -139t239.5 -48t240 48.5t209 140.5q89 88 135.5 200.5t46.5 241.5t-47 243.5t-135 203.5q-91 90 -205 137t-244 47t-243 -46.5t-201 -135.5q-90 -92 -138.5 -208t-48.5 -241zM457 725q0 208 109.5 331.5t291.5 123.5q147 0 243 -77
t105 -200h-166q-10 74 -60 114t-130 40q-99 0 -155 -86.5t-56 -239.5q0 -152 57.5 -234.5t163.5 -82.5q80 0 129 43.5t60 124.5h165q-7 -135 -106.5 -217t-253.5 -82q-183 0 -290 119t-107 323z" />
    <glyph glyph-name="ordfeminine" unicode="&#xaa;" horiz-adv-x="895" 
d="M59 1133q0 158 89 256t231 98q87 0 149.5 -34t89.5 -97v108h164v-663h-164v86q-42 -57 -100.5 -85t-132.5 -28q-151 0 -238.5 96t-87.5 263zM231 1128q0 -105 51 -162t144 -57q88 0 143.5 62.5t55.5 163.5q0 103 -52 161t-145 58q-92 0 -144.5 -60t-52.5 -166z" />
    <glyph glyph-name="guillemotleft" unicode="&#xab;" horiz-adv-x="930" 
d="M80 469l254 408l137 -84l-205 -324l205 -324l-137 -84zM459 469l254 408l139 -84l-207 -324l207 -324l-139 -84z" />
    <glyph glyph-name="logicalnot" unicode="&#xac;" horiz-adv-x="1706" 
d="M254 696v166h1198v-502h-166v336h-1032z" />
    <glyph glyph-name="uni00AD" unicode="&#xad;" horiz-adv-x="829" 
d="M147 371v200h535v-200h-535z" />
    <glyph glyph-name="registered" unicode="&#xae;" horiz-adv-x="1706" 
d="M113 731q0 147 57.5 284t165.5 245q104 104 234.5 157t281.5 53q153 0 288.5 -56t241.5 -165q103 -104 157 -236.5t54 -281.5q0 -153 -55.5 -287t-161.5 -237q-108 -105 -243 -161t-281 -56q-147 0 -282.5 57.5t-241.5 165.5q-105 106 -160 239t-55 279zM223 731
q0 -125 47 -238.5t136 -203.5q90 -91 204 -140t234 -49q130 0 246.5 47t209.5 138q89 86 137 198.5t48 237.5q0 133 -45.5 247.5t-134.5 205.5q-93 92 -207.5 140t-243.5 48t-240 -45.5t-200 -134.5q-92 -94 -141.5 -210t-49.5 -241zM551 330v829h319q173 0 262 -57t89 -168
q0 -91 -48 -150.5t-137 -78.5l185 -375h-199l-164 346h-129v-346h-178zM729 786h117q100 0 146 30.5t46 96.5q0 69 -48 101.5t-152 32.5h-109v-261z" />
    <glyph glyph-name="macron" unicode="&#xaf;" horiz-adv-x="1024" 
d="M248 1153v141h526v-141h-526z" />
    <glyph glyph-name="degree" unicode="&#xb0;" horiz-adv-x="674" 
d="M43 1163q0 125 86 211t209 86q121 0 208 -87t87 -210q0 -121 -87 -208t-210 -87t-208 85.5t-85 209.5zM152 1165q0 -76 54.5 -131t131.5 -55t130.5 54.5t53.5 131.5t-53.5 131t-130.5 54t-131.5 -54t-54.5 -131z" />
    <glyph glyph-name="plusminus" unicode="&#xb1;" horiz-adv-x="1706" 
d="M254 14v168h1198v-168h-1198zM254 707v165h514v334h170v-334h514v-165h-514v-334h-170v334h-514z" />
    <glyph glyph-name="uni00B2" unicode="&#xb2;" horiz-adv-x="817" 
d="M29 575l360 394q67 73 98 129t31 102q0 65 -42 102t-116 37q-66 0 -109 -36.5t-48 -97.5l-152 -1q0 118 87.5 188t234.5 70q140 0 220.5 -65t80.5 -178q0 -79 -45.5 -159.5t-196.5 -240.5l-125 -129h369v-115h-647z" />
    <glyph glyph-name="uni00B3" unicode="&#xb3;" horiz-adv-x="817" 
d="M62 811h151v-8q0 -61 45.5 -97t122.5 -36q89 0 136.5 40t47.5 115q0 79 -49 118.5t-147 39.5h-29v115q4 0 13.5 -1t15.5 -1q85 0 128.5 32.5t43.5 96.5q0 56 -39.5 89.5t-106.5 33.5q-70 0 -109.5 -30.5t-42.5 -86.5h-141q7 111 83.5 171t213.5 60q134 0 211.5 -63
t77.5 -170q0 -81 -44 -132.5t-122 -62.5q92 -15 140.5 -73.5t48.5 -153.5q0 -117 -90.5 -185.5t-245.5 -68.5q-140 0 -224.5 69.5t-88.5 188.5z" />
    <glyph glyph-name="acute" unicode="&#xb4;" horiz-adv-x="1024" 
d="M371 1092l190 272h225l-292 -272h-123z" />
    <glyph glyph-name="uni00B5" unicode="&#xb5;" horiz-adv-x="1208" 
d="M-92 -430l297 1511h229l-125 -635q-6 -29 -9 -55t-3 -49q0 -96 46.5 -146.5t135.5 -50.5q122 0 193.5 88.5t111.5 292.5l109 555h225l-145 -739q-10 -49 -14.5 -81.5t-4.5 -51.5q0 -36 15.5 -51t52.5 -15q13 0 20.5 0.5t13.5 1.5l-32 -159q-32 -9 -68.5 -13t-81.5 -4
q-74 0 -111.5 31.5t-37.5 93.5v15q-41 -67 -108 -104.5t-146 -37.5q-81 0 -137.5 26t-97.5 83l-99 -506h-229z" />
    <glyph glyph-name="paragraph" unicode="&#xb6;" horiz-adv-x="1024" 
d="M55 1130q0 158 107 253.5t284 95.5h523v-99h-117v-1380h-129v1380h-168v-1380h-131v784q-168 6 -268.5 101t-100.5 245z" />
    <glyph glyph-name="periodcentered" unicode="&#xb7;" horiz-adv-x="618" 
d="M178 721q0 55 38 93t93 38q56 0 93.5 -38t37.5 -93q0 -54 -38 -92.5t-93 -38.5q-54 0 -92.5 38.5t-38.5 92.5z" />
    <glyph glyph-name="cedilla" unicode="&#xb8;" horiz-adv-x="1024" 
d="M274 -287q81 -19 140 -28t102 -9q52 0 77 17t25 51q0 39 -31.5 56.5t-101.5 17.5q-7 0 -20 -1t-21 -1v184h86v-86h17q112 0 167.5 -43.5t55.5 -130.5q0 -83 -61.5 -127.5t-176.5 -44.5q-49 0 -114 9.5t-144 29.5v106z" />
    <glyph glyph-name="uni00B9" unicode="&#xb9;" horiz-adv-x="817" 
d="M158 1333l61 113h281v-871h-142v758h-200z" />
    <glyph glyph-name="ordmasculine" unicode="&#xba;" horiz-adv-x="903" 
d="M59 1133q0 72 30 136.5t87 114.5q54 50 125 76.5t150 26.5q81 0 151.5 -26.5t126.5 -78.5q56 -51 85.5 -114.5t29.5 -134.5q0 -74 -29 -138t-86 -114q-57 -53 -128 -80t-150 -27q-78 0 -149 27t-126 78q-57 51 -87 115.5t-30 138.5zM231 1130q0 -93 64.5 -157t157.5 -64
q90 0 154.5 64.5t64.5 156.5q0 93 -64 157.5t-155 64.5q-93 0 -157.5 -64t-64.5 -158z" />
    <glyph glyph-name="guillemotright" unicode="&#xbb;" horiz-adv-x="930" 
d="M82 145l205 324l-205 324l137 84l254 -408l-254 -408zM459 145l207 324l-207 324l139 84l254 -408l-254 -408z" />
    <glyph glyph-name="onequarter" unicode="&#xbc;" horiz-adv-x="1901" 
d="M150 1339l57 105h270v-811h-137v706h-190zM438 -39l887 1518h137l-887 -1518h-137zM1139 166l536 661h43v-567h113v-94h-113v-166h-137v166h-442zM1352 260h229v213q0 17 1 37.5t3 42.5z" />
    <glyph glyph-name="onehalf" unicode="&#xbd;" horiz-adv-x="1901" 
d="M150 1339l57 105h270v-811h-137v706h-190zM438 -39l887 1518h137l-887 -1518h-137zM1149 0l344 367q66 70 95.5 121.5t29.5 93.5q0 61 -40.5 96t-111.5 35q-63 0 -103.5 -34.5t-45.5 -92.5h-146q0 110 83.5 175.5t224.5 65.5q133 0 209.5 -60.5t76.5 -166.5
q0 -75 -45 -152.5t-186 -220.5l-117 -121h350v-106h-618z" />
    <glyph glyph-name="threequarters" unicode="&#xbe;" horiz-adv-x="1901" 
d="M60 852h143v-6q0 -58 43.5 -91.5t118.5 -33.5q83 0 128.5 37.5t45.5 107.5q0 74 -47 111t-140 37q-4 0 -13.5 -1t-14.5 -1v108q5 0 13.5 -1t12.5 -1q82 0 124 30.5t42 90.5q0 52 -37 83.5t-100 31.5q-69 0 -106.5 -28.5t-41.5 -82.5h-135q8 106 81 161.5t204 55.5
q128 0 202 -58t74 -159q0 -75 -42 -123t-117 -59q88 -14 134 -68.5t46 -144.5q0 -109 -86.5 -173.5t-233.5 -64.5q-132 0 -213 66t-85 176zM438 -39l887 1518h137l-887 -1518h-137zM1139 166l536 661h43v-567h113v-94h-113v-166h-137v166h-442zM1352 260h229v213
q0 17 1 37.5t3 42.5z" />
    <glyph glyph-name="questiondown" unicode="&#xbf;" horiz-adv-x="1114" 
d="M193 305q0 114 56.5 188t225.5 156l20 10q199 99 199 187q0 51 -39 88t-94 37q-67 0 -103.5 -40.5t-38.5 -115.5h-177v21q0 148 83 228.5t236 80.5q142 0 234 -83.5t92 -211.5q0 -118 -63.5 -196t-248.5 -167q-122 -57 -157 -96t-35 -94q0 -67 47.5 -110.5t120.5 -43.5
q82 0 128 53.5t46 147.5h172q0 -6 1 -18.5t1 -18.5q0 -158 -94.5 -252t-253.5 -94q-163 0 -260.5 94t-97.5 250zM449 1368q0 54 38 91.5t93 37.5t93 -37.5t38 -91.5t-39 -92.5t-92 -38.5q-56 0 -93.5 38t-37.5 93z" />
    <glyph glyph-name="Agrave" unicode="&#xc0;" horiz-adv-x="1356" 
d="M-31 0l709 1522l708 -1522h-251l-166 377h-580l-170 -377h-250zM404 1880h225l190 -272h-123zM477 575h408l-150 334q-13 32 -27 73.5t-28 92.5q-12 -48 -25.5 -89.5t-27.5 -76.5z" />
    <glyph glyph-name="Aacute" unicode="&#xc1;" horiz-adv-x="1356" 
d="M-31 0l709 1522l708 -1522h-251l-166 377h-580l-170 -377h-250zM477 575h408l-150 334q-13 32 -27 73.5t-28 92.5q-12 -48 -25.5 -89.5t-27.5 -76.5zM537 1608l190 272h225l-292 -272h-123z" />
    <glyph glyph-name="Acircumflex" unicode="&#xc2;" horiz-adv-x="1356" 
d="M-31 0l709 1522l708 -1522h-251l-166 377h-580l-170 -377h-250zM381 1608l193 272h208l193 -272h-123l-174 157l-174 -157h-123zM477 575h408l-150 334q-13 32 -27 73.5t-28 92.5q-12 -48 -25.5 -89.5t-27.5 -76.5z" />
    <glyph glyph-name="Atilde" unicode="&#xc3;" horiz-adv-x="1356" 
d="M-31 0l709 1522l708 -1522h-251l-166 377h-580l-170 -377h-250zM385 1624q23 106 69.5 157.5t119.5 51.5q15 0 30.5 -2t30.5 -6l117 -31q8 -2 18 -3t29 -1q31 0 52 17.5t30 49.5h90q-18 -99 -69.5 -153.5t-125.5 -54.5q-13 0 -26 1.5t-27 4.5l-124 32q-16 3 -24 4t-14 1
q-35 0 -55 -16t-31 -52h-90zM477 575h408l-150 334q-13 32 -27 73.5t-28 92.5q-12 -48 -25.5 -89.5t-27.5 -76.5z" />
    <glyph glyph-name="Adieresis" unicode="&#xc4;" horiz-adv-x="1356" 
d="M-31 0l709 1522l708 -1522h-251l-166 377h-580l-170 -377h-250zM375 1771q0 48 36 83.5t85 35.5t84 -34.5t35 -84.5q0 -53 -33.5 -87.5t-85.5 -34.5q-51 0 -86 35t-35 87zM477 575h408l-150 334q-13 32 -27 73.5t-28 92.5q-12 -48 -25.5 -89.5t-27.5 -76.5zM739 1771
q0 48 36 83.5t85 35.5t84 -34.5t35 -84.5q0 -53 -33.5 -87.5t-85.5 -34.5q-51 0 -86 35t-35 87z" />
    <glyph glyph-name="Aring" unicode="&#xc5;" horiz-adv-x="1356" 
d="M-31 0l684 1464h52l681 -1464h-251l-166 377h-580l-170 -377h-250zM442 1735q0 99 68.5 168t167.5 69q98 0 167.5 -69.5t69.5 -167.5q0 -99 -68.5 -167.5t-168.5 -68.5t-168 68t-68 168zM477 575h408l-150 334q-13 32 -27 73.5t-28 92.5q-12 -48 -25.5 -89.5t-27.5 -76.5
zM565 1735q0 -48 33.5 -80.5t81.5 -32.5q47 0 81 33t34 80t-33.5 80.5t-81.5 33.5t-81.5 -33.5t-33.5 -80.5z" />
    <glyph glyph-name="AE" unicode="&#xc6;" horiz-adv-x="1866" 
d="M-31 0l684 1464h676l84 -202h-536l129 -359h491l78 -209h-490l179 -481h538l80 -213h-772l-139 377h-582l-170 -377h-250zM477 575h422l-123 334q-25 67 -42.5 127t-28.5 117q-11 -53 -29.5 -108.5t-44.5 -114.5z" />
    <glyph glyph-name="Ccedilla" unicode="&#xc7;" horiz-adv-x="1470" 
d="M104 729q0 161 57.5 302.5t166.5 248.5q109 108 250 163.5t305 55.5q129 0 246 -37.5t227 -113.5l-13 -240q-101 86 -213.5 129t-236.5 43q-240 0 -390.5 -154t-150.5 -399q0 -237 146.5 -391t369.5 -154q130 0 247.5 46t225.5 139v-269q-96 -69 -209 -103t-245 -34
q-168 0 -310.5 55t-250.5 162q-107 105 -164.5 247.5t-57.5 303.5zM630 -287q81 -19 140 -28t102 -9q52 0 77 17t25 51q0 39 -31.5 56.5t-101.5 17.5q-7 0 -20 -1t-21 -1v184h86v-86h17q112 0 167.5 -43.5t55.5 -130.5q0 -83 -61.5 -127.5t-176.5 -44.5q-49 0 -114 9.5
t-144 29.5v106z" />
    <glyph glyph-name="Egrave" unicode="&#xc8;" horiz-adv-x="1090" 
d="M168 0v1464h817v-202h-579v-367h579v-209h-579v-473h579v-213h-817zM306 1880h225l190 -272h-123z" />
    <glyph glyph-name="Eacute" unicode="&#xc9;" horiz-adv-x="1090" 
d="M168 0v1464h817v-202h-579v-367h579v-209h-579v-473h579v-213h-817zM439 1608l190 272h225l-292 -272h-123z" />
    <glyph glyph-name="Ecircumflex" unicode="&#xca;" horiz-adv-x="1090" 
d="M168 0v1464h817v-202h-579v-367h579v-209h-579v-473h579v-213h-817zM283 1608l193 272h208l193 -272h-123l-174 157l-174 -157h-123z" />
    <glyph glyph-name="Edieresis" unicode="&#xcb;" horiz-adv-x="1090" 
d="M168 0v1464h817v-202h-579v-367h579v-209h-579v-473h579v-213h-817zM277 1771q0 48 36 83.5t85 35.5t84 -34.5t35 -84.5q0 -53 -33.5 -87.5t-85.5 -34.5q-51 0 -86 35t-35 87zM641 1771q0 48 36 83.5t85 35.5t84 -34.5t35 -84.5q0 -53 -33.5 -87.5t-85.5 -34.5
q-51 0 -86 35t-35 87z" />
    <glyph glyph-name="Igrave" unicode="&#xcc;" horiz-adv-x="584" 
d="M19 1880h225l190 -272h-123zM172 0v1464h238v-1464h-238z" />
    <glyph glyph-name="Iacute" unicode="&#xcd;" horiz-adv-x="584" 
d="M152 1608l190 272h225l-292 -272h-123zM172 0v1464h238v-1464h-238z" />
    <glyph glyph-name="Icircumflex" unicode="&#xce;" horiz-adv-x="584" 
d="M-4 1608l193 272h208l193 -272h-123l-174 157l-174 -157h-123zM172 0v1464h238v-1464h-238z" />
    <glyph glyph-name="Idieresis" unicode="&#xcf;" horiz-adv-x="584" 
d="M-10 1771q0 48 36 83.5t85 35.5t84 -34.5t35 -84.5q0 -53 -33.5 -87.5t-85.5 -34.5q-51 0 -86 35t-35 87zM172 0v1464h238v-1464h-238zM354 1771q0 48 36 83.5t85 35.5t84 -34.5t35 -84.5q0 -53 -33.5 -87.5t-85.5 -34.5q-51 0 -86 35t-35 87z" />
    <glyph glyph-name="Eth" unicode="&#xd0;" horiz-adv-x="1530" 
d="M0 723v184h182v557h322q312 0 439.5 -31.5t223.5 -105.5q127 -97 192.5 -249t65.5 -347t-65.5 -345.5t-192.5 -248.5q-95 -74 -218 -105.5t-382 -31.5h-63h-322v723h-182zM420 215h201q164 0 246.5 22t144.5 74q83 71 124.5 176.5t41.5 245.5t-41.5 245.5t-124.5 176.5
q-63 52 -149.5 74t-270.5 22h-86h-86v-344h387v-184h-387v-508z" />
    <glyph glyph-name="Ntilde" unicode="&#xd1;" horiz-adv-x="1645" 
d="M168 0v1522l930 -895l77 -81q39 -43 82 -97v1015h220v-1521l-949 911q-38 37 -73.5 78t-67.5 86v-1018h-219zM530 1624q23 106 69.5 157.5t119.5 51.5q15 0 30.5 -2t30.5 -6l117 -31q8 -2 18 -3t29 -1q31 0 52 17.5t30 49.5h90q-18 -99 -69.5 -153.5t-125.5 -54.5
q-13 0 -26 1.5t-27 4.5l-124 32q-16 3 -24 4t-14 1q-35 0 -55 -16t-31 -52h-90z" />
    <glyph glyph-name="Ograve" unicode="&#xd2;" horiz-adv-x="1774" 
d="M104 729q0 157 58 296t170 249q112 109 254 166t301 57q158 0 299.5 -57t253.5 -166q112 -111 170.5 -250.5t58.5 -294.5q0 -156 -58.5 -295t-170.5 -248q-113 -109 -255 -167t-298 -58q-158 0 -301.5 58.5t-253.5 166.5q-112 109 -170 247t-58 296zM352 729
q0 -111 40 -210t116 -177t173 -119t206 -41q107 0 203.5 41t173.5 119q76 78 116.5 177.5t40.5 209.5q0 111 -40.5 211t-116.5 178q-74 77 -171.5 118.5t-205.5 41.5t-205.5 -41t-173.5 -119q-76 -77 -116 -177t-40 -212zM613 1880h225l190 -272h-123z" />
    <glyph glyph-name="Oacute" unicode="&#xd3;" horiz-adv-x="1774" 
d="M104 729q0 157 58 296t170 249q112 109 254 166t301 57q158 0 299.5 -57t253.5 -166q112 -111 170.5 -250.5t58.5 -294.5q0 -156 -58.5 -295t-170.5 -248q-113 -109 -255 -167t-298 -58q-158 0 -301.5 58.5t-253.5 166.5q-112 109 -170 247t-58 296zM352 729
q0 -111 40 -210t116 -177t173 -119t206 -41q107 0 203.5 41t173.5 119q76 78 116.5 177.5t40.5 209.5q0 111 -40.5 211t-116.5 178q-74 77 -171.5 118.5t-205.5 41.5t-205.5 -41t-173.5 -119q-76 -77 -116 -177t-40 -212zM746 1608l190 272h225l-292 -272h-123z" />
    <glyph glyph-name="Ocircumflex" unicode="&#xd4;" horiz-adv-x="1774" 
d="M104 729q0 157 58 296t170 249q112 109 254 166t301 57q158 0 299.5 -57t253.5 -166q112 -111 170.5 -250.5t58.5 -294.5q0 -156 -58.5 -295t-170.5 -248q-113 -109 -255 -167t-298 -58q-158 0 -301.5 58.5t-253.5 166.5q-112 109 -170 247t-58 296zM352 729
q0 -111 40 -210t116 -177t173 -119t206 -41q107 0 203.5 41t173.5 119q76 78 116.5 177.5t40.5 209.5q0 111 -40.5 211t-116.5 178q-74 77 -171.5 118.5t-205.5 41.5t-205.5 -41t-173.5 -119q-76 -77 -116 -177t-40 -212zM590 1608l193 272h208l193 -272h-123l-174 157
l-174 -157h-123z" />
    <glyph glyph-name="Otilde" unicode="&#xd5;" horiz-adv-x="1774" 
d="M104 729q0 157 58 296t170 249q112 109 254 166t301 57q158 0 299.5 -57t253.5 -166q112 -111 170.5 -250.5t58.5 -294.5q0 -156 -58.5 -295t-170.5 -248q-113 -109 -255 -167t-298 -58q-158 0 -301.5 58.5t-253.5 166.5q-112 109 -170 247t-58 296zM352 729
q0 -111 40 -210t116 -177t173 -119t206 -41q107 0 203.5 41t173.5 119q76 78 116.5 177.5t40.5 209.5q0 111 -40.5 211t-116.5 178q-74 77 -171.5 118.5t-205.5 41.5t-205.5 -41t-173.5 -119q-76 -77 -116 -177t-40 -212zM594 1624q23 106 69.5 157.5t119.5 51.5
q15 0 30.5 -2t30.5 -6l117 -31q8 -2 18 -3t29 -1q31 0 52 17.5t30 49.5h90q-18 -99 -69.5 -153.5t-125.5 -54.5q-13 0 -26 1.5t-27 4.5l-124 32q-16 3 -24 4t-14 1q-35 0 -55 -16t-31 -52h-90z" />
    <glyph glyph-name="Odieresis" unicode="&#xd6;" horiz-adv-x="1774" 
d="M104 729q0 157 58 296t170 249q112 109 254 166t301 57q158 0 299.5 -57t253.5 -166q112 -111 170.5 -250.5t58.5 -294.5q0 -156 -58.5 -295t-170.5 -248q-113 -109 -255 -167t-298 -58q-158 0 -301.5 58.5t-253.5 166.5q-112 109 -170 247t-58 296zM352 729
q0 -111 40 -210t116 -177t173 -119t206 -41q107 0 203.5 41t173.5 119q76 78 116.5 177.5t40.5 209.5q0 111 -40.5 211t-116.5 178q-74 77 -171.5 118.5t-205.5 41.5t-205.5 -41t-173.5 -119q-76 -77 -116 -177t-40 -212zM584 1771q0 48 36 83.5t85 35.5t84 -34.5t35 -84.5
q0 -53 -33.5 -87.5t-85.5 -34.5q-51 0 -86 35t-35 87zM948 1771q0 48 36 83.5t85 35.5t84 -34.5t35 -84.5q0 -53 -33.5 -87.5t-85.5 -34.5q-51 0 -86 35t-35 87z" />
    <glyph glyph-name="multiply" unicode="&#xd7;" horiz-adv-x="1706" 
d="M287 152l458 458l-458 461l116 117l459 -459l461 459l117 -117l-459 -461l459 -458l-117 -119l-461 461l-459 -461z" />
    <glyph glyph-name="Oslash" unicode="&#xd8;" horiz-adv-x="1774" 
d="M104 731q0 157 58.5 296t169.5 247q110 109 253.5 167t301.5 58q116 0 228 -35.5t226 -109.5l172 184l129 -104l-176 -189q103 -114 153 -240t50 -274q0 -156 -59 -295t-170 -248q-111 -107 -254 -165t-299 -58q-131 0 -248.5 38.5t-224.5 117.5l-181 -195l-124 109
l184 196q-96 108 -142.5 231t-46.5 269zM352 731q0 -94 25.5 -173t79.5 -150l727 778q-68 48 -140.5 71t-156.5 23q-108 0 -206.5 -41.5t-172.5 -118.5q-76 -77 -116 -177t-40 -212zM571 289q67 -53 141.5 -79t159.5 -26q119 0 217 40t177 120q76 78 115.5 177t39.5 210
q0 95 -30 181.5t-88 160.5z" />
    <glyph glyph-name="Ugrave" unicode="&#xd9;" horiz-adv-x="1524" 
d="M162 553v911h235v-889q0 -198 91.5 -297.5t273.5 -99.5q181 0 272.5 99.5t91.5 297.5v889h238v-911q0 -297 -150 -444.5t-452 -147.5t-451 147t-149 445zM488 1880h225l190 -272h-123z" />
    <glyph glyph-name="Uacute" unicode="&#xda;" horiz-adv-x="1524" 
d="M162 553v911h235v-889q0 -198 91.5 -297.5t273.5 -99.5q181 0 272.5 99.5t91.5 297.5v889h238v-911q0 -297 -150 -444.5t-452 -147.5t-451 147t-149 445zM621 1608l190 272h225l-292 -272h-123z" />
    <glyph glyph-name="Ucircumflex" unicode="&#xdb;" horiz-adv-x="1524" 
d="M162 553v911h235v-889q0 -198 91.5 -297.5t273.5 -99.5q181 0 272.5 99.5t91.5 297.5v889h238v-911q0 -297 -150 -444.5t-452 -147.5t-451 147t-149 445zM465 1608l193 272h208l193 -272h-123l-174 157l-174 -157h-123z" />
    <glyph glyph-name="Udieresis" unicode="&#xdc;" horiz-adv-x="1524" 
d="M162 553v911h235v-889q0 -198 91.5 -297.5t273.5 -99.5q181 0 272.5 99.5t91.5 297.5v889h238v-911q0 -297 -150 -444.5t-452 -147.5t-451 147t-149 445zM459 1771q0 48 36 83.5t85 35.5t84 -34.5t35 -84.5q0 -53 -33.5 -87.5t-85.5 -34.5q-51 0 -86 35t-35 87zM823 1771
q0 48 36 83.5t85 35.5t84 -34.5t35 -84.5q0 -53 -33.5 -87.5t-85.5 -34.5q-51 0 -86 35t-35 87z" />
    <glyph glyph-name="Yacute" unicode="&#xdd;" horiz-adv-x="1214" 
d="M-10 1464h250l307 -497l28 -50q16 -31 33 -67q14 35 29.5 66t32.5 57l315 491h238l-504 -794v-670h-236v670zM467 1608l190 272h225l-292 -272h-123z" />
    <glyph glyph-name="Thorn" unicode="&#xde;" horiz-adv-x="1090" 
d="M168 0v1464h223v-301h115q177 0 254.5 -17.5t134.5 -58.5q69 -50 108 -136.5t39 -190.5t-39 -192t-108 -138q-56 -40 -131.5 -57t-235.5 -17h-47h-90v-356h-223zM391 551h76q198 0 264 43t66 151q0 118 -70.5 165.5t-259.5 47.5h-76v-407z" />
    <glyph glyph-name="germandbls" unicode="&#xdf;" horiz-adv-x="1233" 
d="M47 743v205h117v234q0 172 122.5 280.5t319.5 108.5q193 0 308.5 -106t115.5 -281q0 -128 -68.5 -210.5t-207.5 -123.5q188 -9 291.5 -118.5t103.5 -301.5q0 -225 -120.5 -347t-344.5 -122q-53 0 -94.5 9.5t-77.5 29.5v193q31 -16 64.5 -23.5t70.5 -7.5q132 0 203.5 74
t71.5 213q0 145 -84.5 216.5t-255.5 71.5h-35v201q6 0 17 -1t16 -1q106 0 164.5 55t58.5 156q0 112 -53 171.5t-152 59.5q-121 0 -169 -70.5t-48 -285.5v-1022h-217v743h-117z" />
    <glyph glyph-name="agrave" unicode="&#xe0;" horiz-adv-x="1192" 
d="M80 475q0 227 118 366.5t308 139.5q116 0 198.5 -48.5t120.5 -139.5v155h217v-948h-217v123q-58 -82 -135.5 -122t-177.5 -40q-201 0 -316.5 137.5t-115.5 376.5zM307 469q0 -151 68 -233t192 -82q117 0 190.5 89t73.5 234q0 147 -68.5 229t-191.5 82t-193.5 -84.5
t-70.5 -234.5zM332 1364h225l190 -272h-123z" />
    <glyph glyph-name="aacute" unicode="&#xe1;" horiz-adv-x="1192" 
d="M80 475q0 227 118 366.5t308 139.5q116 0 198.5 -48.5t120.5 -139.5v155h217v-948h-217v123q-58 -82 -135.5 -122t-177.5 -40q-201 0 -316.5 137.5t-115.5 376.5zM307 469q0 -151 68 -233t192 -82q117 0 190.5 89t73.5 234q0 147 -68.5 229t-191.5 82t-193.5 -84.5
t-70.5 -234.5zM465 1092l190 272h225l-292 -272h-123z" />
    <glyph glyph-name="acircumflex" unicode="&#xe2;" horiz-adv-x="1192" 
d="M80 475q0 227 118 366.5t308 139.5q116 0 198.5 -48.5t120.5 -139.5v155h217v-948h-217v123q-58 -82 -135.5 -122t-177.5 -40q-201 0 -316.5 137.5t-115.5 376.5zM307 469q0 -151 68 -233t192 -82q117 0 190.5 89t73.5 234q0 147 -68.5 229t-191.5 82t-193.5 -84.5
t-70.5 -234.5zM309 1092l193 272h208l193 -272h-123l-174 157l-174 -157h-123z" />
    <glyph glyph-name="atilde" unicode="&#xe3;" horiz-adv-x="1192" 
d="M80 475q0 227 118 366.5t308 139.5q116 0 198.5 -48.5t120.5 -139.5v155h217v-948h-217v123q-58 -82 -135.5 -122t-177.5 -40q-201 0 -316.5 137.5t-115.5 376.5zM307 469q0 -151 68 -233t192 -82q117 0 190.5 89t73.5 234q0 147 -68.5 229t-191.5 82t-193.5 -84.5
t-70.5 -234.5zM313 1108q23 106 69.5 157.5t119.5 51.5q15 0 30.5 -2t30.5 -6l117 -31q8 -2 18 -3t29 -1q31 0 52 17.5t30 49.5h90q-18 -99 -69.5 -153.5t-125.5 -54.5q-13 0 -26 1.5t-27 4.5l-124 32q-16 3 -24 4t-14 1q-35 0 -55 -16t-31 -52h-90z" />
    <glyph glyph-name="adieresis" unicode="&#xe4;" horiz-adv-x="1192" 
d="M80 475q0 227 118 366.5t308 139.5q116 0 198.5 -48.5t120.5 -139.5v155h217v-948h-217v123q-58 -82 -135.5 -122t-177.5 -40q-201 0 -316.5 137.5t-115.5 376.5zM303 1255q0 48 36 83.5t85 35.5t84 -34.5t35 -84.5q0 -53 -33.5 -87.5t-85.5 -34.5q-51 0 -86 35t-35 87z
M307 469q0 -151 68 -233t192 -82q117 0 190.5 89t73.5 234q0 147 -68.5 229t-191.5 82t-193.5 -84.5t-70.5 -234.5zM667 1255q0 48 36 83.5t85 35.5t84 -34.5t35 -84.5q0 -53 -33.5 -87.5t-85.5 -34.5q-51 0 -86 35t-35 87z" />
    <glyph glyph-name="aring" unicode="&#xe5;" horiz-adv-x="1192" 
d="M80 475q0 227 118 366.5t308 139.5q116 0 198.5 -48.5t120.5 -139.5v155h217v-948h-217v123q-58 -82 -135.5 -122t-177.5 -40q-201 0 -316.5 137.5t-115.5 376.5zM307 469q0 -151 68 -233t192 -82q117 0 190.5 89t73.5 234q0 147 -68.5 229t-191.5 82t-193.5 -84.5
t-70.5 -234.5zM330 1284q0 99 69 168.5t168 69.5q98 0 167 -69.5t69 -168.5q0 -98 -68.5 -166.5t-167.5 -68.5q-100 0 -168.5 68t-68.5 167zM455 1284q0 -48 32.5 -80.5t79.5 -32.5q48 0 81.5 33.5t33.5 79.5q0 48 -33.5 81.5t-81.5 33.5q-47 0 -79.5 -33.5t-32.5 -81.5z
" />
    <glyph glyph-name="ae" unicode="&#xe6;" horiz-adv-x="1765" 
d="M70 293q0 142 102 228.5t268 86.5q87 0 156.5 -17t128.5 -52q1 6 1.5 13.5t0.5 22.5q0 109 -70.5 165.5t-205.5 56.5q-72 0 -148 -25t-149 -72v203q70 40 145.5 60t159.5 20q143 0 232 -39.5t151 -128.5q61 83 151 125.5t203 42.5q230 0 357.5 -132.5t127.5 -371.5v-37
h-757q7 -134 78.5 -210t189.5 -76q103 0 173.5 45t123.5 145l182 -102q-80 -144 -197 -213.5t-278 -69.5q-120 0 -206 38t-148 118q-67 -75 -169 -115.5t-224 -40.5q-173 0 -276 91t-103 241zM295 297q0 -66 53.5 -103.5t147.5 -37.5q112 0 175.5 38t63.5 105q0 65 -59 104
t-160 39q-103 0 -162 -39t-59 -106zM938 588h518q-12 102 -76.5 155.5t-177.5 53.5q-107 0 -172.5 -52t-91.5 -157z" />
    <glyph glyph-name="ccedilla" unicode="&#xe7;" horiz-adv-x="930" 
d="M80 471q0 229 145.5 369.5t380.5 140.5q74 0 136 -14.5t116 -44.5v-244q-50 55 -116.5 84t-143.5 29q-133 0 -213 -86t-80 -228q0 -148 80.5 -232.5t222.5 -84.5q79 0 141 29.5t109 89.5v-250q-60 -34 -128.5 -51t-145.5 -17q-223 0 -363.5 142t-140.5 368zM317 -287
q81 -19 140 -28t102 -9q52 0 77 17t25 51q0 39 -31.5 56.5t-101.5 17.5q-7 0 -20 -1t-21 -1v184h86v-86h17q112 0 167.5 -43.5t55.5 -130.5q0 -83 -61.5 -127.5t-176.5 -44.5q-49 0 -114 9.5t-144 29.5v106z" />
    <glyph glyph-name="egrave" unicode="&#xe8;" horiz-adv-x="1139" 
d="M80 471q0 223 139.5 366.5t358.5 143.5q229 0 357 -131t128 -367v-41h-758q8 -133 79 -207.5t189 -74.5q105 0 175 44t122 142l183 -102q-80 -143 -198 -213t-277 -70q-228 0 -363 139t-135 371zM304 1364h225l190 -272h-123zM319 588h519q-13 102 -78 155.5t-178 53.5
q-107 0 -172 -52t-91 -157z" />
    <glyph glyph-name="eacute" unicode="&#xe9;" horiz-adv-x="1139" 
d="M80 471q0 223 139.5 366.5t358.5 143.5q229 0 357 -131t128 -367v-41h-758q8 -133 79 -207.5t189 -74.5q105 0 175 44t122 142l183 -102q-80 -143 -198 -213t-277 -70q-228 0 -363 139t-135 371zM319 588h519q-13 102 -78 155.5t-178 53.5q-107 0 -172 -52t-91 -157z
M437 1092l190 272h225l-292 -272h-123z" />
    <glyph glyph-name="ecircumflex" unicode="&#xea;" horiz-adv-x="1139" 
d="M80 471q0 223 139.5 366.5t358.5 143.5q229 0 357 -131t128 -367v-41h-758q8 -133 79 -207.5t189 -74.5q105 0 175 44t122 142l183 -102q-80 -143 -198 -213t-277 -70q-228 0 -363 139t-135 371zM281 1092l193 272h208l193 -272h-123l-174 157l-174 -157h-123zM319 588
h519q-13 102 -78 155.5t-178 53.5q-107 0 -172 -52t-91 -157z" />
    <glyph glyph-name="edieresis" unicode="&#xeb;" horiz-adv-x="1139" 
d="M80 471q0 223 139.5 366.5t358.5 143.5q229 0 357 -131t128 -367v-41h-758q8 -133 79 -207.5t189 -74.5q105 0 175 44t122 142l183 -102q-80 -143 -198 -213t-277 -70q-228 0 -363 139t-135 371zM275 1255q0 48 36 83.5t85 35.5t84 -34.5t35 -84.5q0 -53 -33.5 -87.5
t-85.5 -34.5q-51 0 -86 35t-35 87zM319 588h519q-13 102 -78 155.5t-178 53.5q-107 0 -172 -52t-91 -157zM639 1255q0 48 36 83.5t85 35.5t84 -34.5t35 -84.5q0 -53 -33.5 -87.5t-85.5 -34.5q-51 0 -86 35t-35 87z" />
    <glyph glyph-name="igrave" unicode="&#xec;" horiz-adv-x="537" 
d="M-6 1364h225l190 -272h-123zM160 0v948h217v-948h-217z" />
    <glyph glyph-name="iacute" unicode="&#xed;" horiz-adv-x="537" 
d="M127 1092l190 272h225l-292 -272h-123zM160 0v948h217v-948h-217z" />
    <glyph glyph-name="icircumflex" unicode="&#xee;" horiz-adv-x="537" 
d="M-29 1092l193 272h208l193 -272h-123l-174 157l-174 -157h-123zM160 0v948h217v-948h-217z" />
    <glyph glyph-name="idieresis" unicode="&#xef;" horiz-adv-x="537" 
d="M-35 1255q0 48 36 83.5t85 35.5t84 -34.5t35 -84.5q0 -53 -33.5 -87.5t-85.5 -34.5q-51 0 -86 35t-35 87zM160 0v948h217v-948h-217zM329 1255q0 48 36 83.5t85 35.5t84 -34.5t35 -84.5q0 -53 -33.5 -87.5t-85.5 -34.5q-51 0 -86 35t-35 87z" />
    <glyph glyph-name="eth" unicode="&#xf0;" 
d="M80 449q0 96 39.5 183.5t113.5 155.5q72 68 160 101t195 33q76 0 145 -27.5t131 -81.5q-49 108 -111.5 191.5t-136.5 140.5l-290 -135l-60 116l240 111q-42 32 -93 64.5t-143 82.5l109 160q121 -72 197 -122.5t131 -94.5l317 143l59 -114l-268 -123q152 -147 230.5 -326
t78.5 -377q0 -262 -141.5 -415.5t-382.5 -153.5q-103 0 -198 37t-171 106q-73 68 -112 156.5t-39 188.5zM309 442q0 -119 85.5 -202.5t207.5 -83.5q121 0 207 84t86 202q0 120 -85 203.5t-208 83.5q-124 0 -208.5 -83t-84.5 -204z" />
    <glyph glyph-name="ntilde" unicode="&#xf1;" 
d="M150 0v948h204v-155q65 98 153 143t214 45q106 0 180.5 -33.5t116.5 -99.5q25 -39 36 -91t11 -182v-575h-219v487q0 187 -45.5 248.5t-161.5 61.5q-76 0 -135.5 -28t-93.5 -79q-24 -34 -33.5 -87.5t-9.5 -170.5v-432h-217zM325 1108q23 106 69.5 157.5t119.5 51.5
q15 0 30.5 -2t30.5 -6l117 -31q8 -2 18 -3t29 -1q31 0 52 17.5t30 49.5h90q-18 -99 -69.5 -153.5t-125.5 -54.5q-13 0 -26 1.5t-27 4.5l-124 32q-16 3 -24 4t-14 1q-35 0 -55 -16t-31 -52h-90z" />
    <glyph glyph-name="ograve" unicode="&#xf2;" 
d="M80 473q0 104 39.5 196.5t113.5 164.5q73 71 168 109t199 38q107 0 201.5 -38t169.5 -112q75 -73 114 -165t39 -193q0 -105 -38.5 -197t-112.5 -163q-78 -75 -173 -113.5t-200 -38.5q-103 0 -198 38.5t-169 111.5q-75 74 -114 166t-39 196zM309 471q0 -132 85.5 -223.5
t207.5 -91.5t207.5 91.5t85.5 223.5t-85 223.5t-208 91.5q-122 0 -207.5 -91.5t-85.5 -223.5zM328 1364h225l190 -272h-123z" />
    <glyph glyph-name="oacute" unicode="&#xf3;" 
d="M80 473q0 104 39.5 196.5t113.5 164.5q73 71 168 109t199 38q107 0 201.5 -38t169.5 -112q75 -73 114 -165t39 -193q0 -105 -38.5 -197t-112.5 -163q-78 -75 -173 -113.5t-200 -38.5q-103 0 -198 38.5t-169 111.5q-75 74 -114 166t-39 196zM309 471q0 -132 85.5 -223.5
t207.5 -91.5t207.5 91.5t85.5 223.5t-85 223.5t-208 91.5q-122 0 -207.5 -91.5t-85.5 -223.5zM461 1092l190 272h225l-292 -272h-123z" />
    <glyph glyph-name="ocircumflex" unicode="&#xf4;" 
d="M80 473q0 104 39.5 196.5t113.5 164.5q73 71 168 109t199 38q107 0 201.5 -38t169.5 -112q75 -73 114 -165t39 -193q0 -105 -38.5 -197t-112.5 -163q-78 -75 -173 -113.5t-200 -38.5q-103 0 -198 38.5t-169 111.5q-75 74 -114 166t-39 196zM305 1092l193 272h208
l193 -272h-123l-174 157l-174 -157h-123zM309 471q0 -132 85.5 -223.5t207.5 -91.5t207.5 91.5t85.5 223.5t-85 223.5t-208 91.5q-122 0 -207.5 -91.5t-85.5 -223.5z" />
    <glyph glyph-name="otilde" unicode="&#xf5;" 
d="M80 473q0 104 39.5 196.5t113.5 164.5q73 71 168 109t199 38q107 0 201.5 -38t169.5 -112q75 -73 114 -165t39 -193q0 -105 -38.5 -197t-112.5 -163q-78 -75 -173 -113.5t-200 -38.5q-103 0 -198 38.5t-169 111.5q-75 74 -114 166t-39 196zM309 471q0 -132 85.5 -223.5
t207.5 -91.5t207.5 91.5t85.5 223.5t-85 223.5t-208 91.5q-122 0 -207.5 -91.5t-85.5 -223.5zM309 1108q23 106 69.5 157.5t119.5 51.5q15 0 30.5 -2t30.5 -6l117 -31q8 -2 18 -3t29 -1q31 0 52 17.5t30 49.5h90q-18 -99 -69.5 -153.5t-125.5 -54.5q-13 0 -26 1.5t-27 4.5
l-124 32q-16 3 -24 4t-14 1q-35 0 -55 -16t-31 -52h-90z" />
    <glyph glyph-name="odieresis" unicode="&#xf6;" 
d="M80 473q0 104 39.5 196.5t113.5 164.5q73 71 168 109t199 38q107 0 201.5 -38t169.5 -112q75 -73 114 -165t39 -193q0 -105 -38.5 -197t-112.5 -163q-78 -75 -173 -113.5t-200 -38.5q-103 0 -198 38.5t-169 111.5q-75 74 -114 166t-39 196zM299 1255q0 48 36 83.5
t85 35.5t84 -34.5t35 -84.5q0 -53 -33.5 -87.5t-85.5 -34.5q-51 0 -86 35t-35 87zM309 471q0 -132 85.5 -223.5t207.5 -91.5t207.5 91.5t85.5 223.5t-85 223.5t-208 91.5q-122 0 -207.5 -91.5t-85.5 -223.5zM663 1255q0 48 36 83.5t85 35.5t84 -34.5t35 -84.5
q0 -53 -33.5 -87.5t-85.5 -34.5q-51 0 -86 35t-35 87z" />
    <glyph glyph-name="divide" unicode="&#xf7;" horiz-adv-x="1706" 
d="M254 528v166h1198v-166h-1198zM717 229q0 57 40.5 97.5t96.5 40.5q57 0 97 -40.5t40 -97.5q0 -56 -39.5 -95.5t-97.5 -39.5t-97.5 39t-39.5 96zM717 989q0 57 40.5 98t96.5 41q57 0 97 -41t40 -98q0 -56 -39.5 -95.5t-97.5 -39.5t-97.5 39t-39.5 96z" />
    <glyph glyph-name="oslash" unicode="&#xf8;" 
d="M70 29l125 127q-58 74 -85.5 151t-27.5 162q0 223 149.5 368.5t376.5 145.5q94 0 174 -28.5t144 -84.5l125 127l84 -79l-127 -130q58 -75 86 -152t28 -163q0 -219 -151 -365.5t-377 -146.5q-92 0 -171.5 28t-141.5 83l-131 -125zM305 475q0 -42 11 -84t34 -86l428 418
q-37 32 -77.5 47.5t-88.5 15.5q-131 0 -219 -89t-88 -222zM424 217q38 -29 80 -43t90 -14q130 0 215.5 86.5t85.5 218.5q0 43 -11 85t-34 85z" />
    <glyph glyph-name="ugrave" unicode="&#xf9;" 
d="M143 479v469h217v-534q0 -138 57 -198t185 -60t185 60t57 198v534h217v-469q0 -272 -109 -395t-348 -123q-243 0 -352 122t-109 396zM328 1364h225l190 -272h-123z" />
    <glyph glyph-name="uacute" unicode="&#xfa;" 
d="M143 479v469h217v-534q0 -138 57 -198t185 -60t185 60t57 198v534h217v-469q0 -272 -109 -395t-348 -123q-243 0 -352 122t-109 396zM461 1092l190 272h225l-292 -272h-123z" />
    <glyph glyph-name="ucircumflex" unicode="&#xfb;" 
d="M143 479v469h217v-534q0 -138 57 -198t185 -60t185 60t57 198v534h217v-469q0 -272 -109 -395t-348 -123q-243 0 -352 122t-109 396zM305 1092l193 272h208l193 -272h-123l-174 157l-174 -157h-123z" />
    <glyph glyph-name="udieresis" unicode="&#xfc;" 
d="M143 479v469h217v-534q0 -138 57 -198t185 -60t185 60t57 198v534h217v-469q0 -272 -109 -395t-348 -123q-243 0 -352 122t-109 396zM299 1255q0 48 36 83.5t85 35.5t84 -34.5t35 -84.5q0 -53 -33.5 -87.5t-85.5 -34.5q-51 0 -86 35t-35 87zM663 1255q0 48 36 83.5
t85 35.5t84 -34.5t35 -84.5q0 -53 -33.5 -87.5t-85.5 -34.5q-51 0 -86 35t-35 87z" />
    <glyph glyph-name="yacute" unicode="&#xfd;" horiz-adv-x="965" 
d="M2 948h240l174 -491q15 -45 26.5 -91.5t18.5 -94.5q13 50 62 159l5 12l234 506h235l-684 -1394h-223l260 528zM342 1092l190 272h225l-292 -272h-123z" />
    <glyph glyph-name="thorn" unicode="&#xfe;" horiz-adv-x="1192" 
d="M150 -446v1996h217v-757q38 90 121.5 139t199.5 49q189 0 306.5 -139.5t117.5 -366.5q0 -239 -115.5 -376.5t-316.5 -137.5q-100 0 -177.5 40t-135.5 122v-569h-217zM360 477q0 -147 73.5 -235t193.5 -88q123 0 190.5 82t67.5 233q0 150 -70.5 234.5t-193.5 84.5
t-192 -82t-69 -229z" />
    <glyph glyph-name="ydieresis" unicode="&#xff;" horiz-adv-x="965" 
d="M2 948h240l174 -491q15 -45 26.5 -91.5t18.5 -94.5q13 50 62 159l5 12l234 506h235l-684 -1394h-223l260 528zM180 1255q0 48 36 83.5t85 35.5t84 -34.5t35 -84.5q0 -53 -33.5 -87.5t-85.5 -34.5q-51 0 -86 35t-35 87zM544 1255q0 48 36 83.5t85 35.5t84 -34.5t35 -84.5
q0 -53 -33.5 -87.5t-85.5 -34.5q-51 0 -86 35t-35 87z" />
    <glyph glyph-name="OE" unicode="&#x152;" horiz-adv-x="2304" 
d="M109 731q0 155 57.5 294t167.5 249q109 109 248.5 167t294.5 58q159 0 291 -63t237 -189l2 217h788v-202h-569v-361h569v-209h-569v-479h569v-213h-788l-2 225q-94 -126 -230 -193t-298 -67q-156 0 -295 57.5t-248 165.5q-110 110 -167.5 249t-57.5 294zM352 731
q0 -111 39.5 -210t114.5 -177q74 -78 169.5 -119t201.5 -41q105 0 200.5 41t169.5 119q75 78 114.5 177t39.5 210q0 112 -39.5 211.5t-114.5 177.5q-74 77 -170 118.5t-200 41.5q-106 0 -201.5 -41t-169.5 -119q-75 -78 -114.5 -177.5t-39.5 -211.5z" />
    <glyph glyph-name="oe" unicode="&#x153;" horiz-adv-x="1944" 
d="M80 473q0 101 38.5 192.5t110.5 163.5q76 74 174 113t209 39q124 0 223.5 -51.5t165.5 -149.5q64 102 156.5 151.5t218.5 49.5q230 0 358 -131t128 -367v-41h-758q8 -134 79 -210t189 -76q103 0 173.5 45t123.5 145l182 -102q-79 -143 -197 -213t-278 -70q-128 0 -220 45
t-163 141q-86 -95 -180.5 -140.5t-206.5 -45.5q-71 0 -138 17.5t-126 52.5q-126 72 -194 187t-68 255zM307 471q0 -132 85.5 -223.5t207.5 -91.5t208.5 91.5t86.5 223.5t-86 223.5t-209 91.5q-122 0 -207.5 -91.5t-85.5 -223.5zM1118 588h518q-12 102 -76.5 155.5
t-177.5 53.5q-106 0 -172 -52t-92 -157z" />
    <glyph glyph-name="Ydieresis" unicode="&#x178;" horiz-adv-x="1214" 
d="M-10 1464h250l307 -497l28 -50q16 -31 33 -67q14 35 29.5 66t32.5 57l315 491h238l-504 -794v-670h-236v670zM305 1771q0 48 36 83.5t85 35.5t84 -34.5t35 -84.5q0 -53 -33.5 -87.5t-85.5 -34.5q-51 0 -86 35t-35 87zM669 1771q0 48 36 83.5t85 35.5t84 -34.5t35 -84.5
q0 -53 -33.5 -87.5t-85.5 -34.5q-51 0 -86 35t-35 87z" />
    <glyph glyph-name="circumflex" unicode="&#x2c6;" horiz-adv-x="1024" 
d="M215 1092l193 272h208l193 -272h-123l-174 157l-174 -157h-123z" />
    <glyph glyph-name="tilde" unicode="&#x2dc;" horiz-adv-x="1024" 
d="M219 1108q23 106 69.5 157.5t119.5 51.5q15 0 30.5 -2t30.5 -6l117 -31q8 -2 18 -3t29 -1q31 0 52 17.5t30 49.5h90q-18 -99 -69.5 -153.5t-125.5 -54.5q-13 0 -26 1.5t-27 4.5l-124 32q-16 3 -24 4t-14 1q-35 0 -55 -16t-31 -52h-90z" />
    <glyph glyph-name="uni2000" unicode="&#x2000;" horiz-adv-x="986" 
 />
    <glyph glyph-name="uni2001" unicode="&#x2001;" horiz-adv-x="1972" 
 />
    <glyph glyph-name="uni2002" unicode="&#x2002;" horiz-adv-x="986" 
 />
    <glyph glyph-name="uni2003" unicode="&#x2003;" horiz-adv-x="1972" 
 />
    <glyph glyph-name="uni2004" unicode="&#x2004;" horiz-adv-x="657" 
 />
    <glyph glyph-name="uni2005" unicode="&#x2005;" horiz-adv-x="493" 
 />
    <glyph glyph-name="uni2006" unicode="&#x2006;" horiz-adv-x="328" 
 />
    <glyph glyph-name="uni2007" unicode="&#x2007;" horiz-adv-x="328" 
 />
    <glyph glyph-name="uni2008" unicode="&#x2008;" horiz-adv-x="246" 
 />
    <glyph glyph-name="uni2009" unicode="&#x2009;" horiz-adv-x="394" 
 />
    <glyph glyph-name="uni200A" unicode="&#x200a;" horiz-adv-x="109" 
 />
    <glyph glyph-name="uni2010" unicode="&#x2010;" horiz-adv-x="829" 
d="M147 371v200h535v-200h-535z" />
    <glyph glyph-name="uni2011" unicode="&#x2011;" horiz-adv-x="829" 
d="M147 371v200h535v-200h-535z" />
    <glyph glyph-name="figuredash" unicode="&#x2012;" horiz-adv-x="829" 
d="M147 371v200h535v-200h-535z" />
    <glyph glyph-name="endash" unicode="&#x2013;" horiz-adv-x="1024" 
d="M0 399v146h1024v-146h-1024z" />
    <glyph glyph-name="emdash" unicode="&#x2014;" horiz-adv-x="2048" 
d="M0 399v146h2048v-146h-2048z" />
    <glyph glyph-name="quoteleft" unicode="&#x2018;" horiz-adv-x="618" 
d="M123 969l246 528l127 -45l-191 -545z" />
    <glyph glyph-name="quoteright" unicode="&#x2019;" horiz-adv-x="618" 
d="M123 954l190 543l183 -59l-246 -531z" />
    <glyph glyph-name="quotesinglbase" unicode="&#x201a;" horiz-adv-x="618" 
d="M123 -299l190 545l183 -60l-246 -530z" />
    <glyph glyph-name="quotedblleft" unicode="&#x201c;" horiz-adv-x="905" 
d="M84 969l246 528l127 -45l-189 -545zM449 969l245 528l127 -45l-190 -545z" />
    <glyph glyph-name="quotedblright" unicode="&#x201d;" horiz-adv-x="905" 
d="M84 954l190 543l183 -59l-246 -531zM449 954l190 543l182 -59l-246 -531z" />
    <glyph glyph-name="quotedblbase" unicode="&#x201e;" horiz-adv-x="905" 
d="M84 -299l190 545l183 -60l-246 -530zM449 -299l190 545l182 -60l-246 -530z" />
    <glyph glyph-name="bullet" unicode="&#x2022;" horiz-adv-x="1208" 
d="M307 762q0 123 87 209t210 86q122 0 208.5 -86.5t86.5 -208.5t-87.5 -209.5t-209.5 -87.5q-123 0 -209 87t-86 210z" />
    <glyph glyph-name="ellipsis" unicode="&#x2026;" horiz-adv-x="2048" 
d="M211 111q0 55 38 94t93 39t93 -39t38 -94q0 -54 -38 -91.5t-93 -37.5t-93 37.5t-38 91.5zM893 111q0 55 38 94t93 39t93 -39t38 -94q0 -54 -38 -91.5t-93 -37.5t-93 37.5t-38 91.5zM1577 111q0 55 38 94t93 39t93 -39t38 -94q0 -54 -38 -91.5t-93 -37.5t-93 37.5
t-38 91.5z" />
    <glyph glyph-name="uni202F" unicode="&#x202f;" horiz-adv-x="394" 
 />
    <glyph glyph-name="guilsinglleft" unicode="&#x2039;" horiz-adv-x="627" 
d="M80 469l254 408l139 -84l-207 -324l207 -324l-139 -84z" />
    <glyph glyph-name="guilsinglright" unicode="&#x203a;" horiz-adv-x="545" 
d="M80 145l207 324l-207 324l139 84l254 -408l-254 -408z" />
    <glyph glyph-name="uni205F" unicode="&#x205f;" horiz-adv-x="493" 
 />
    <glyph glyph-name="trademark" unicode="&#x2122;" horiz-adv-x="1706" 
d="M225 1366v94h467v-94h-168v-448h-129v448h-170zM809 918v542h170l141 -360l133 360h170v-542h-114v428l-160 -428h-59l-166 428v-428h-115z" />
    <glyph glyph-name="uni25FC" unicode="&#x25fc;" horiz-adv-x="950" 
d="M0 0v950h950v-950h-950z" />
    <glyph glyph-name="glyph3" horiz-adv-x="748" 
d="M68 0v1365h544v-1365h-544zM136 68h408v1229h-408v-1229z" />
    <glyph glyph-name="glyph1" horiz-adv-x="2048" 
 />
    <glyph glyph-name="glyph1" horiz-adv-x="2048" 
 />
    </font>
</defs>
</svg>
