<?xml version="1.0" encoding="UTF-8"?>
<svg width="150px" height="35px" viewBox="0 0 150 35" version="1.1" xmlns="http://www.w3.org/2000/svg" xmlns:xlink="http://www.w3.org/1999/xlink">
    <title>kustomize_full</title>
    <desc>Kustomize full.</desc>
    <defs>
        <linearGradient x1="50%" y1="50%" x2="78.7501831%" y2="85.1573392%" id="linearGradient-1">
            <stop stop-color="#02D8B1" offset="0%"></stop>
            <stop stop-color="#01B090" offset="100%"></stop>
        </linearGradient>
        <linearGradient x1="50%" y1="50%" x2="79.5159394%" y2="86.093749%" id="linearGradient-2">
            <stop stop-color="#FC7753" offset="0%"></stop>
            <stop stop-color="#C64725" offset="100%"></stop>
        </linearGradient>
    </defs>
    <g>
    <g id="ustomize.io" transform="translate(33.000000, 7.000000)" fill="#3E5FA8" font-size="20">
        <g id="ustomize." transform="translate(0.000000, 1.000000)" font-family="HelveticaNeue, Helvetica Neue" font-weight="normal">
            <text id="ustomize">
                <tspan x="0.7" y="19.5">ustomize</tspan>
            </text>
            <text id=".">
                <tspan x="88.42" y="19.5">.</tspan>
            </text>
        </g>
        <g id="io" transform="translate(95.000000, 0.000000)" font-family="HelveticaNeue-MediumItalic, Helvetica Neue" font-style="italic" font-weight="500">
            <text id="i">
                <tspan x="0.26" y="20.5">i</tspan>
            </text>
            <text id="o">
                <tspan x="5.58" y="20.5">o</tspan>
            </text>
        </g>
    </g>
    <g id="Group-82">
        <rect id="Rectangle-2" fill-opacity="0.4" fill="#3F60A8" fill-rule="nonzero" x="0.117132246" y="0" width="24.279567" height="27.5098248" rx="1.8"></rect>
        <rect id="Rectangle-2" fill-opacity="0.4" fill="#3F60A8" fill-rule="nonzero" x="3.11713225" y="3" width="24.279567" height="27.5098248" rx="1.8"></rect>
        <path d="M7.8,6 L27.5300757,6 C28.5241882,6 29.3300757,6.80588745 29.3300757,7.8 L29.3300757,30.6744376 C29.3300757,31.6685501 28.5241882,32.4744376 27.5300757,32.4744376 L7.8,32.4744376 C6.80588745,32.4744376 6,31.6685501 6,30.6744376 L6,7.8 C6,6.80588745 6.80588745,6 7.8,6 Z" id="Rectangle-2" fill="#3E5FA8" fill-rule="nonzero"></path>
        <text id="K" fill="#FFFFFF" font-family="HelveticaNeue-Bold, Helvetica Neue" font-size="20" font-weight="bold">
            <tspan x="10.78" y="27">K</tspan>
        </text>
    </g>
    </g>
</svg>